<svg width="100%" height="auto" viewBox="0 0 352 127" fill="none" xmlns="http://www.w3.org/2000/svg">
<g clip-path="url(#clip0_4034_3757)">
<ellipse opacity="0.5" cx="170.5" cy="77" rx="380.5" ry="146" fill="url(#paint0_radial_4034_3757)"/>
<rect x="24" y="24" width="303.003" height="98" rx="4" fill="#2C3137"/>
<path d="M24 28C24 25.7909 25.7909 24 28 24H323C325.209 24 327 25.7909 327 28V56H24V28Z" fill="#D9181F"/>
<path d="M126.815 45L123.736 34.0909H125.862L127.827 42.1076H127.928L130.027 34.0909H131.961L134.065 42.1129H134.161L136.126 34.0909H138.252L135.173 45H133.223L131.039 37.3455H130.954L128.765 45H126.815ZM139.622 45V34.0909H146.717V35.7475H141.598V38.7092H146.349V40.3658H141.598V43.3434H146.76V45H139.622ZM148.733 45V34.0909H150.709V43.3434H155.514V45H148.733ZM157.229 45V34.0909H159.205V43.3434H164.01V45H157.229ZM171.654 37.0898C171.604 36.6246 171.395 36.2624 171.025 36.0032C170.66 35.744 170.184 35.6143 169.598 35.6143C169.186 35.6143 168.833 35.6765 168.538 35.8008C168.243 35.9251 168.018 36.0937 167.861 36.3068C167.705 36.5199 167.625 36.7631 167.622 37.0366C167.622 37.2638 167.673 37.4609 167.776 37.6278C167.883 37.7947 168.026 37.9368 168.208 38.054C168.389 38.1676 168.589 38.2635 168.81 38.3416C169.03 38.4197 169.252 38.4854 169.475 38.5387L170.498 38.7944C170.91 38.8903 171.306 39.0199 171.686 39.1832C172.069 39.3466 172.412 39.5526 172.714 39.8011C173.019 40.0497 173.261 40.3498 173.438 40.7013C173.616 41.0529 173.705 41.4648 173.705 41.9371C173.705 42.5763 173.541 43.1392 173.215 43.6257C172.888 44.1087 172.416 44.4869 171.798 44.7603C171.183 45.0302 170.439 45.1651 169.566 45.1651C168.717 45.1651 167.98 45.0337 167.355 44.771C166.734 44.5082 166.247 44.1246 165.896 43.6204C165.548 43.1161 165.36 42.5018 165.331 41.7773H167.275C167.304 42.1573 167.421 42.4734 167.627 42.7255C167.833 42.9776 168.101 43.1658 168.431 43.2901C168.765 43.4144 169.138 43.4766 169.55 43.4766C169.98 43.4766 170.356 43.4126 170.679 43.2848C171.006 43.1534 171.262 42.9723 171.446 42.7415C171.631 42.5071 171.725 42.2337 171.729 41.9212C171.725 41.6371 171.642 41.4027 171.478 41.218C171.315 41.0298 171.086 40.8736 170.791 40.7493C170.5 40.6214 170.159 40.5078 169.768 40.4084L168.527 40.0888C167.629 39.858 166.919 39.5082 166.397 39.0394C165.878 38.5671 165.619 37.9403 165.619 37.1591C165.619 36.5163 165.793 35.9535 166.141 35.4705C166.492 34.9876 166.97 34.6129 167.574 34.3466C168.177 34.0767 168.861 33.9418 169.625 33.9418C170.399 33.9418 171.077 34.0767 171.659 34.3466C172.245 34.6129 172.705 34.984 173.039 35.4599C173.373 35.9322 173.545 36.4755 173.556 37.0898H171.654ZM179.187 45V34.0909H186.176V35.7475H181.163V38.7092H185.697V40.3658H181.163V45H179.187ZM188.015 45H185.906L189.746 34.0909H192.186L196.032 45H193.922L191.009 36.3281H190.923L188.015 45ZM188.084 40.7227H193.837V42.31H188.084V40.7227ZM197.469 45V34.0909H201.559C202.397 34.0909 203.101 34.2365 203.669 34.5277C204.241 34.8189 204.672 35.2273 204.963 35.7528C205.258 36.2749 205.405 36.8839 205.405 37.5799C205.405 38.2795 205.256 38.8867 204.958 39.4016C204.663 39.913 204.228 40.3089 203.653 40.5895C203.078 40.8665 202.371 41.005 201.533 41.005H198.619V39.3643H201.266C201.757 39.3643 202.158 39.2969 202.47 39.1619C202.783 39.0234 203.014 38.8228 203.163 38.56C203.315 38.2937 203.392 37.967 203.392 37.5799C203.392 37.1928 203.315 36.8626 203.163 36.5891C203.01 36.3121 202.777 36.1026 202.465 35.9606C202.152 35.815 201.749 35.7422 201.256 35.7422H199.445V45H197.469ZM203.104 40.0568L205.805 45H203.6L200.947 40.0568H203.104ZM214.533 37.5746C214.444 37.2869 214.321 37.0295 214.165 36.8022C214.012 36.5714 213.828 36.3743 213.611 36.2109C213.398 36.0476 213.153 35.9251 212.876 35.8434C212.599 35.7582 212.297 35.7156 211.97 35.7156C211.385 35.7156 210.863 35.8629 210.404 36.1577C209.946 36.4524 209.586 36.8857 209.323 37.4574C209.064 38.0256 208.934 38.718 208.934 39.5348C208.934 40.3587 209.064 41.0565 209.323 41.6282C209.582 42.1999 209.943 42.6349 210.404 42.9332C210.866 43.228 211.402 43.3754 212.013 43.3754C212.567 43.3754 213.046 43.2688 213.451 43.0558C213.86 42.8427 214.174 42.5408 214.394 42.1502C214.614 41.756 214.724 41.2944 214.724 40.7653L215.172 40.8345H212.21V39.2898H216.637V40.6001C216.637 41.5341 216.438 42.342 216.04 43.0238C215.642 43.7056 215.095 44.2312 214.399 44.6005C213.703 44.9663 212.904 45.1491 212.002 45.1491C210.997 45.1491 210.115 44.9237 209.355 44.4727C208.599 44.0181 208.007 43.3736 207.581 42.5391C207.159 41.701 206.947 40.7067 206.947 39.5561C206.947 38.6754 207.072 37.8888 207.32 37.1964C207.572 36.5039 207.924 35.9162 208.375 35.4332C208.826 34.9467 209.355 34.5774 209.962 34.3253C210.57 34.0696 211.23 33.9418 211.944 33.9418C212.548 33.9418 213.11 34.0305 213.632 34.2081C214.154 34.3821 214.618 34.6307 215.023 34.9538C215.431 35.277 215.767 35.6605 216.029 36.1044C216.292 36.5483 216.464 37.0384 216.546 37.5746H214.533ZM228.295 39.5455C228.295 40.7209 228.075 41.7276 227.635 42.5657C227.198 43.4002 226.602 44.0394 225.845 44.4833C225.092 44.9272 224.238 45.1491 223.283 45.1491C222.328 45.1491 221.472 44.9272 220.716 44.4833C219.963 44.0359 219.366 43.3949 218.926 42.5604C218.489 41.7223 218.271 40.7173 218.271 39.5455C218.271 38.37 218.489 37.3651 218.926 36.5305C219.366 35.6925 219.963 35.0515 220.716 34.6076C221.472 34.1637 222.328 33.9418 223.283 33.9418C224.238 33.9418 225.092 34.1637 225.845 34.6076C226.602 35.0515 227.198 35.6925 227.635 36.5305C228.075 37.3651 228.295 38.37 228.295 39.5455ZM226.309 39.5455C226.309 38.718 226.179 38.0202 225.92 37.4521C225.664 36.8803 225.309 36.4489 224.854 36.1577C224.4 35.8629 223.876 35.7156 223.283 35.7156C222.69 35.7156 222.166 35.8629 221.712 36.1577C221.257 36.4489 220.9 36.8803 220.641 37.4521C220.385 38.0202 220.257 38.718 220.257 39.5455C220.257 40.3729 220.385 41.0724 220.641 41.6442C220.9 42.2124 221.257 42.6438 221.712 42.9386C222.166 43.2298 222.69 43.3754 223.283 43.3754C223.876 43.3754 224.4 43.2298 224.854 42.9386C225.309 42.6438 225.664 42.2124 225.92 41.6442C226.179 41.0724 226.309 40.3729 226.309 39.5455Z" fill="white"/>
<g clip-path="url(#clip1_4034_3757)">
<path d="M48.9375 82.875L47.6875 81.6458C47.5347 81.4931 47.3611 81.4167 47.1667 81.4167C46.9722 81.4167 46.7986 81.4931 46.6458 81.6458C46.4931 81.7986 46.4167 81.9792 46.4167 82.1875C46.4167 82.3819 46.4931 82.5556 46.6458 82.7083L48.4167 84.4792C48.5694 84.6319 48.7431 84.7083 48.9375 84.7083C49.1319 84.7083 49.3056 84.6319 49.4583 84.4792L53.3542 80.5833C53.5069 80.4306 53.5833 80.2569 53.5833 80.0625C53.5833 79.8542 53.5069 79.6736 53.3542 79.5208C53.2014 79.3681 53.0278 79.2917 52.8333 79.2917C52.6389 79.2917 52.4653 79.3681 52.3125 79.5208L48.9375 82.875ZM44.5 89C44.0833 89 43.7292 88.8542 43.4375 88.5625C43.1458 88.2708 43 87.9167 43 87.5V76.5C43 76.0833 43.1458 75.7292 43.4375 75.4375C43.7292 75.1458 44.0833 75 44.5 75H55.5C55.9167 75 56.2708 75.1458 56.5625 75.4375C56.8542 75.7292 57 76.0833 57 76.5V87.5C57 87.9167 56.8542 88.2708 56.5625 88.5625C56.2708 88.8542 55.9167 89 55.5 89H44.5Z" fill="white"/>
</g>
<path d="M78.0994 79.5H76.7784C76.7003 79.12 76.5636 78.7862 76.3683 78.4986C76.1765 78.2109 75.9421 77.9695 75.6651 77.7741C75.3917 77.5753 75.0881 77.4261 74.7543 77.3267C74.4205 77.2273 74.0724 77.1776 73.7102 77.1776C73.0497 77.1776 72.4513 77.3445 71.9151 77.6783C71.3825 78.0121 70.9581 78.5039 70.642 79.1538C70.3295 79.8036 70.1733 80.6009 70.1733 81.5455C70.1733 82.4901 70.3295 83.2873 70.642 83.9371C70.9581 84.587 71.3825 85.0788 71.9151 85.4126C72.4513 85.7464 73.0497 85.9134 73.7102 85.9134C74.0724 85.9134 74.4205 85.8636 74.7543 85.7642C75.0881 85.6648 75.3917 85.5174 75.6651 85.3221C75.9421 85.1232 76.1765 84.88 76.3683 84.5923C76.5636 84.3011 76.7003 83.9673 76.7784 83.5909H78.0994C78 84.1484 77.8189 84.6474 77.5561 85.0877C77.2933 85.5281 76.9666 85.9027 76.576 86.2116C76.1854 86.517 75.7468 86.7496 75.2603 86.9094C74.7773 87.0692 74.2607 87.1491 73.7102 87.1491C72.7798 87.1491 71.9524 86.9219 71.228 86.4673C70.5036 86.0128 69.9336 85.3665 69.5181 84.5284C69.1026 83.6903 68.8949 82.696 68.8949 81.5455C68.8949 80.3949 69.1026 79.4006 69.5181 78.5625C69.9336 77.7244 70.5036 77.0781 71.228 76.6236C71.9524 76.169 72.7798 75.9418 73.7102 75.9418C74.2607 75.9418 74.7773 76.0217 75.2603 76.1815C75.7468 76.3413 76.1854 76.5756 76.576 76.8846C76.9666 77.19 77.2933 77.5629 77.5561 78.0032C77.8189 78.44 78 78.9389 78.0994 79.5ZM81.3208 82.0781V87H80.0637V76.0909H81.3208V80.0966H81.4273C81.6191 79.674 81.9067 79.3384 82.2902 79.0898C82.6773 78.8377 83.1922 78.7116 83.835 78.7116C84.3925 78.7116 84.8808 78.8235 85.2998 79.0472C85.7188 79.2674 86.0438 79.6065 86.2746 80.0646C86.509 80.5192 86.6262 81.098 86.6262 81.8011V87H85.3691V81.8864C85.3691 81.2365 85.2004 80.734 84.863 80.3789C84.5292 80.0202 84.0658 79.8409 83.4727 79.8409C83.0608 79.8409 82.6915 79.9279 82.3648 80.1019C82.0416 80.2759 81.786 80.5298 81.5977 80.8636C81.4131 81.1974 81.3208 81.6023 81.3208 82.0781ZM92.3564 87.1705C91.568 87.1705 90.888 86.9964 90.3162 86.6484C89.748 86.2969 89.3095 85.8068 89.0005 85.1783C88.6951 84.5462 88.5424 83.8111 88.5424 82.973C88.5424 82.1349 88.6951 81.3963 89.0005 80.7571C89.3095 80.1143 89.7392 79.6136 90.2896 79.255C90.8436 78.8928 91.4899 78.7116 92.2285 78.7116C92.6547 78.7116 93.0755 78.7827 93.4909 78.9247C93.9064 79.0668 94.2846 79.2976 94.6255 79.6172C94.9664 79.9332 95.2381 80.3523 95.4405 80.8743C95.6429 81.3963 95.7441 82.0391 95.7441 82.8026V83.3352H89.4373V82.2486H94.4657C94.4657 81.7869 94.3734 81.375 94.1887 81.0128C94.0076 80.6506 93.7484 80.3647 93.411 80.1552C93.0772 79.9457 92.6831 79.8409 92.2285 79.8409C91.7278 79.8409 91.2946 79.9652 90.9288 80.2138C90.5666 80.4588 90.2878 80.7784 90.0925 81.1726C89.8972 81.5668 89.7995 81.9893 89.7995 82.4403V83.1648C89.7995 83.7827 89.9061 84.3065 90.1191 84.7362C90.3358 85.1623 90.6358 85.4872 91.0194 85.7109C91.4029 85.9311 91.8485 86.0412 92.3564 86.0412C92.6866 86.0412 92.9849 85.995 93.2512 85.9027C93.5211 85.8068 93.7537 85.6648 93.949 85.4766C94.1444 85.2848 94.2953 85.0469 94.4018 84.7628L95.6163 85.1037C95.4885 85.5156 95.2736 85.8778 94.9718 86.1903C94.6699 86.4993 94.2971 86.7408 93.8532 86.9148C93.4093 87.0852 92.9103 87.1705 92.3564 87.1705ZM100.98 87.1705C100.213 87.1705 99.5527 86.9893 98.9988 86.6271C98.4448 86.2649 98.0186 85.766 97.7203 85.1303C97.4221 84.4947 97.2729 83.7685 97.2729 82.9517C97.2729 82.1207 97.4256 81.3874 97.731 80.7518C98.04 80.1126 98.4696 79.6136 99.0201 79.255C99.574 78.8928 100.22 78.7116 100.959 78.7116C101.534 78.7116 102.053 78.8182 102.514 79.0312C102.976 79.2443 103.354 79.5426 103.649 79.9261C103.944 80.3097 104.127 80.7571 104.198 81.2685H102.941C102.845 80.8956 102.632 80.5653 102.301 80.2777C101.975 79.9865 101.534 79.8409 100.98 79.8409C100.49 79.8409 100.061 79.9687 99.6912 80.2244C99.3255 80.4766 99.0396 80.8335 98.8336 81.2951C98.6312 81.7532 98.53 82.2912 98.53 82.9091C98.53 83.5412 98.6294 84.0916 98.8283 84.5604C99.0307 85.0291 99.3148 85.3931 99.6806 85.6523C100.05 85.9116 100.483 86.0412 100.98 86.0412C101.307 86.0412 101.604 85.9844 101.87 85.8707C102.136 85.7571 102.362 85.5938 102.546 85.3807C102.731 85.1676 102.862 84.9119 102.941 84.6136H104.198C104.127 85.0966 103.951 85.5316 103.67 85.9187C103.393 86.3022 103.026 86.6076 102.568 86.8349C102.113 87.0586 101.584 87.1705 100.98 87.1705ZM107.207 84.017L107.186 82.4616H107.442L111.021 78.8182H112.577L108.763 82.6747H108.656L107.207 84.017ZM106.035 87V76.0909H107.292V87H106.035ZM111.234 87L108.038 82.9517L108.933 82.0781L112.832 87H111.234ZM114.195 87V78.8182H115.452V87H114.195ZM114.834 77.4545C114.589 77.4545 114.377 77.3711 114.2 77.2042C114.026 77.0373 113.939 76.8366 113.939 76.6023C113.939 76.3679 114.026 76.1673 114.2 76.0004C114.377 75.8335 114.589 75.75 114.834 75.75C115.079 75.75 115.288 75.8335 115.462 76.0004C115.64 76.1673 115.729 76.3679 115.729 76.6023C115.729 76.8366 115.64 77.0373 115.462 77.2042C115.288 77.3711 115.079 77.4545 114.834 77.4545ZM119.011 82.0781V87H117.754V78.8182H118.969V80.0966H119.075C119.267 79.6811 119.558 79.3473 119.949 79.0952C120.339 78.8395 120.844 78.7116 121.461 78.7116C122.015 78.7116 122.5 78.8253 122.916 79.0526C123.331 79.2763 123.654 79.6172 123.885 80.0753C124.116 80.5298 124.231 81.1051 124.231 81.8011V87H122.974V81.8864C122.974 81.2436 122.807 80.7429 122.474 80.3842C122.14 80.022 121.682 79.8409 121.099 79.8409C120.698 79.8409 120.339 79.9279 120.023 80.1019C119.711 80.2759 119.464 80.5298 119.283 80.8636C119.102 81.1974 119.011 81.6023 119.011 82.0781ZM129.831 90.2386C129.224 90.2386 128.702 90.1605 128.265 90.0043C127.828 89.8516 127.464 89.6491 127.173 89.397C126.885 89.1484 126.656 88.8821 126.486 88.598L127.487 87.8949C127.601 88.044 127.745 88.2145 127.919 88.4062C128.093 88.6016 128.331 88.7702 128.633 88.9123C128.938 89.0579 129.337 89.1307 129.831 89.1307C130.492 89.1307 131.037 88.9709 131.466 88.6513C131.896 88.3317 132.111 87.831 132.111 87.1491V85.4872H132.004C131.912 85.6364 131.781 85.821 131.61 86.0412C131.443 86.2578 131.202 86.4513 130.886 86.6218C130.573 86.7887 130.151 86.8722 129.618 86.8722C128.957 86.8722 128.364 86.7159 127.839 86.4034C127.317 86.0909 126.903 85.6364 126.598 85.0398C126.296 84.4432 126.145 83.7187 126.145 82.8665C126.145 82.0284 126.292 81.2987 126.587 80.6772C126.882 80.0522 127.292 79.5692 127.818 79.2283C128.343 78.8839 128.95 78.7116 129.639 78.7116C130.172 78.7116 130.595 78.8004 130.907 78.978C131.223 79.152 131.465 79.3509 131.631 79.5746C131.802 79.7947 131.933 79.9759 132.026 80.1179H132.153V78.8182H133.368V87.2344C133.368 87.9375 133.208 88.5092 132.889 88.9496C132.573 89.3935 132.146 89.7184 131.61 89.9244C131.078 90.1339 130.484 90.2386 129.831 90.2386ZM129.788 85.7429C130.293 85.7429 130.719 85.6275 131.067 85.3967C131.415 85.1658 131.679 84.8338 131.861 84.4006C132.042 83.9673 132.132 83.4489 132.132 82.8452C132.132 82.2557 132.043 81.7354 131.866 81.2844C131.688 80.8335 131.426 80.4801 131.078 80.2244C130.729 79.9687 130.3 79.8409 129.788 79.8409C129.256 79.8409 128.812 79.9759 128.457 80.2457C128.105 80.5156 127.841 80.8778 127.663 81.3324C127.489 81.7869 127.402 82.2912 127.402 82.8452C127.402 83.4134 127.491 83.9158 127.668 84.3526C127.85 84.7859 128.116 85.1268 128.467 85.3754C128.823 85.6204 129.263 85.7429 129.788 85.7429ZM143.212 87.1705C142.473 87.1705 141.825 86.9947 141.267 86.6431C140.714 86.2915 140.28 85.7997 139.968 85.1676C139.659 84.5355 139.504 83.7969 139.504 82.9517C139.504 82.0994 139.659 81.3555 139.968 80.7198C140.28 80.0842 140.714 79.5906 141.267 79.239C141.825 78.8874 142.473 78.7116 143.212 78.7116C143.95 78.7116 144.597 78.8874 145.151 79.239C145.708 79.5906 146.141 80.0842 146.45 80.7198C146.763 81.3555 146.919 82.0994 146.919 82.9517C146.919 83.7969 146.763 84.5355 146.45 85.1676C146.141 85.7997 145.708 86.2915 145.151 86.6431C144.597 86.9947 143.95 87.1705 143.212 87.1705ZM143.212 86.0412C143.773 86.0412 144.234 85.8974 144.597 85.6097C144.959 85.3221 145.227 84.9439 145.401 84.4751C145.575 84.0064 145.662 83.4986 145.662 82.9517C145.662 82.4048 145.575 81.8952 145.401 81.4229C145.227 80.9506 144.959 80.5689 144.597 80.2777C144.234 79.9865 143.773 79.8409 143.212 79.8409C142.651 79.8409 142.189 79.9865 141.827 80.2777C141.465 80.5689 141.196 80.9506 141.022 81.4229C140.848 81.8952 140.761 82.4048 140.761 82.9517C140.761 83.4986 140.848 84.0064 141.022 84.4751C141.196 84.9439 141.465 85.3221 141.827 85.6097C142.189 85.8974 142.651 86.0412 143.212 86.0412ZM148.838 87V78.8182H150.053V80.054H150.138C150.287 79.6491 150.557 79.3207 150.947 79.0685C151.338 78.8164 151.778 78.6903 152.268 78.6903C152.361 78.6903 152.476 78.6921 152.615 78.6957C152.753 78.6992 152.858 78.7045 152.929 78.7116V79.9901C152.886 79.9794 152.789 79.9634 152.636 79.9421C152.487 79.9173 152.329 79.9048 152.162 79.9048C151.764 79.9048 151.409 79.9883 151.097 80.1552C150.788 80.3185 150.543 80.5458 150.362 80.837C150.184 81.1246 150.095 81.4531 150.095 81.8224V87H148.838ZM164.433 80.6506L163.304 80.9702C163.233 80.782 163.128 80.5991 162.99 80.4215C162.855 80.2404 162.67 80.0913 162.436 79.9741C162.201 79.8569 161.901 79.7983 161.536 79.7983C161.035 79.7983 160.618 79.9137 160.284 80.1445C159.954 80.3718 159.788 80.6612 159.788 81.0128C159.788 81.3253 159.902 81.5721 160.129 81.7532C160.357 81.9343 160.712 82.0852 161.195 82.206L162.409 82.5043C163.141 82.6818 163.686 82.9535 164.044 83.3192C164.403 83.6815 164.582 84.1484 164.582 84.7202C164.582 85.1889 164.448 85.608 164.178 85.9773C163.911 86.3466 163.538 86.6378 163.059 86.8509C162.58 87.0639 162.022 87.1705 161.386 87.1705C160.552 87.1705 159.861 86.9893 159.314 86.6271C158.767 86.2649 158.421 85.7358 158.276 85.0398L159.469 84.7415C159.582 85.1818 159.797 85.5121 160.113 85.7322C160.433 85.9524 160.85 86.0625 161.365 86.0625C161.951 86.0625 162.416 85.9382 162.761 85.6896C163.109 85.4375 163.283 85.1357 163.283 84.7841C163.283 84.5 163.183 84.2621 162.984 84.0703C162.786 83.875 162.48 83.7294 162.068 83.6335L160.705 83.3139C159.955 83.1364 159.405 82.8612 159.053 82.4883C158.705 82.1119 158.531 81.6413 158.531 81.0767C158.531 80.6151 158.661 80.2067 158.92 79.8516C159.183 79.4964 159.54 79.2177 159.991 79.0153C160.445 78.8129 160.96 78.7116 161.536 78.7116C162.345 78.7116 162.981 78.8892 163.443 79.2443C163.908 79.5994 164.238 80.0682 164.433 80.6506ZM168.882 87.1918C168.364 87.1918 167.893 87.0941 167.471 86.8988C167.048 86.6999 166.713 86.4141 166.464 86.0412C166.216 85.6648 166.091 85.2102 166.091 84.6776C166.091 84.2088 166.184 83.8288 166.368 83.5376C166.553 83.2429 166.8 83.0121 167.109 82.8452C167.418 82.6783 167.759 82.554 168.131 82.4723C168.508 82.3871 168.886 82.3196 169.266 82.2699C169.763 82.206 170.166 82.158 170.475 82.1261C170.788 82.0906 171.015 82.032 171.157 81.9503C171.303 81.8686 171.375 81.7266 171.375 81.5241V81.4815C171.375 80.956 171.232 80.5476 170.944 80.2564C170.66 79.9652 170.228 79.8196 169.65 79.8196C169.049 79.8196 168.579 79.951 168.238 80.2138C167.897 80.4766 167.657 80.7571 167.519 81.0554L166.326 80.6293C166.539 80.1321 166.823 79.745 167.178 79.468C167.537 79.1875 167.927 78.9922 168.35 78.8821C168.776 78.7685 169.195 78.7116 169.607 78.7116C169.87 78.7116 170.172 78.7436 170.512 78.8075C170.857 78.8679 171.189 78.994 171.509 79.1857C171.832 79.3775 172.1 79.6669 172.313 80.054C172.526 80.4411 172.632 80.9595 172.632 81.6094V87H171.375V85.892H171.311C171.226 86.0696 171.084 86.2596 170.885 86.462C170.686 86.6644 170.422 86.8366 170.092 86.9787C169.761 87.1207 169.358 87.1918 168.882 87.1918ZM169.074 86.0625C169.571 86.0625 169.99 85.9648 170.331 85.7695C170.676 85.5742 170.935 85.3221 171.109 85.0131C171.287 84.7042 171.375 84.3793 171.375 84.0384V82.8878C171.322 82.9517 171.205 83.0103 171.024 83.0636C170.846 83.1133 170.64 83.1577 170.406 83.1967C170.175 83.2322 169.95 83.2642 169.729 83.2926C169.513 83.3175 169.337 83.3388 169.202 83.3565C168.875 83.3991 168.57 83.4684 168.286 83.5643C168.005 83.6566 167.778 83.7969 167.604 83.9851C167.434 84.1697 167.348 84.4219 167.348 84.7415C167.348 85.1783 167.51 85.5085 167.833 85.7322C168.16 85.9524 168.574 86.0625 169.074 86.0625ZM181.324 78.8182L178.299 87H177.02L173.995 78.8182H175.358L177.617 85.3381H177.702L179.961 78.8182H181.324ZM182.984 87V78.8182H184.241V87H182.984ZM183.623 77.4545C183.378 77.4545 183.166 77.3711 182.989 77.2042C182.815 77.0373 182.728 76.8366 182.728 76.6023C182.728 76.3679 182.815 76.1673 182.989 76.0004C183.166 75.8335 183.378 75.75 183.623 75.75C183.868 75.75 184.077 75.8335 184.251 76.0004C184.429 76.1673 184.518 76.3679 184.518 76.6023C184.518 76.8366 184.429 77.0373 184.251 77.2042C184.077 77.3711 183.868 77.4545 183.623 77.4545ZM187.8 82.0781V87H186.543V78.8182H187.758V80.0966H187.864C188.056 79.6811 188.347 79.3473 188.738 79.0952C189.128 78.8395 189.633 78.7116 190.251 78.7116C190.805 78.7116 191.289 78.8253 191.705 79.0526C192.12 79.2763 192.443 79.6172 192.674 80.0753C192.905 80.5298 193.02 81.1051 193.02 81.8011V87H191.763V81.8864C191.763 81.2436 191.596 80.7429 191.263 80.3842C190.929 80.022 190.471 79.8409 189.888 79.8409C189.487 79.8409 189.128 79.9279 188.812 80.1019C188.5 80.2759 188.253 80.5298 188.072 80.8636C187.891 81.1974 187.8 81.6023 187.8 82.0781ZM198.62 90.2386C198.013 90.2386 197.491 90.1605 197.054 90.0043C196.617 89.8516 196.253 89.6491 195.962 89.397C195.674 89.1484 195.445 88.8821 195.275 88.598L196.276 87.8949C196.39 88.044 196.534 88.2145 196.708 88.4062C196.882 88.6016 197.12 88.7702 197.422 88.9123C197.727 89.0579 198.127 89.1307 198.62 89.1307C199.281 89.1307 199.826 88.9709 200.255 88.6513C200.685 88.3317 200.9 87.831 200.9 87.1491V85.4872H200.793C200.701 85.6364 200.57 85.821 200.399 86.0412C200.232 86.2578 199.991 86.4513 199.675 86.6218C199.362 86.7887 198.94 86.8722 198.407 86.8722C197.747 86.8722 197.153 86.7159 196.628 86.4034C196.106 86.0909 195.692 85.6364 195.387 85.0398C195.085 84.4432 194.934 83.7187 194.934 82.8665C194.934 82.0284 195.081 81.2987 195.376 80.6772C195.671 80.0522 196.081 79.5692 196.607 79.2283C197.132 78.8839 197.739 78.7116 198.428 78.7116C198.961 78.7116 199.384 78.8004 199.696 78.978C200.012 79.152 200.254 79.3509 200.421 79.5746C200.591 79.7947 200.722 79.9759 200.815 80.1179H200.943V78.8182H202.157V87.2344C202.157 87.9375 201.997 88.5092 201.678 88.9496C201.362 89.3935 200.935 89.7184 200.399 89.9244C199.867 90.1339 199.274 90.2386 198.62 90.2386ZM198.578 85.7429C199.082 85.7429 199.508 85.6275 199.856 85.3967C200.204 85.1658 200.468 84.8338 200.65 84.4006C200.831 83.9673 200.921 83.4489 200.921 82.8452C200.921 82.2557 200.832 81.7354 200.655 81.2844C200.477 80.8335 200.215 80.4801 199.867 80.2244C199.519 79.9687 199.089 79.8409 198.578 79.8409C198.045 79.8409 197.601 79.9759 197.246 80.2457C196.894 80.5156 196.63 80.8778 196.452 81.3324C196.278 81.7869 196.191 82.2912 196.191 82.8452C196.191 83.4134 196.28 83.9158 196.457 84.3526C196.639 84.7859 196.905 85.1268 197.256 85.3754C197.612 85.6204 198.052 85.7429 198.578 85.7429ZM210.254 80.6506L209.124 80.9702C209.053 80.782 208.949 80.5991 208.81 80.4215C208.675 80.2404 208.491 80.0913 208.256 79.9741C208.022 79.8569 207.722 79.7983 207.356 79.7983C206.855 79.7983 206.438 79.9137 206.104 80.1445C205.774 80.3718 205.609 80.6612 205.609 81.0128C205.609 81.3253 205.722 81.5721 205.95 81.7532C206.177 81.9343 206.532 82.0852 207.015 82.206L208.229 82.5043C208.961 82.6818 209.506 82.9535 209.865 83.3192C210.223 83.6815 210.403 84.1484 210.403 84.7202C210.403 85.1889 210.268 85.608 209.998 85.9773C209.732 86.3466 209.359 86.6378 208.879 86.8509C208.4 87.0639 207.842 87.1705 207.207 87.1705C206.372 87.1705 205.682 86.9893 205.135 86.6271C204.588 86.2649 204.242 85.7358 204.096 85.0398L205.289 84.7415C205.403 85.1818 205.618 85.5121 205.934 85.7322C206.253 85.9524 206.671 86.0625 207.185 86.0625C207.771 86.0625 208.237 85.9382 208.581 85.6896C208.929 85.4375 209.103 85.1357 209.103 84.7841C209.103 84.5 209.004 84.2621 208.805 84.0703C208.606 83.875 208.301 83.7294 207.889 83.6335L206.525 83.3139C205.776 83.1364 205.225 82.8612 204.874 82.4883C204.526 82.1119 204.352 81.6413 204.352 81.0767C204.352 80.6151 204.481 80.2067 204.741 79.8516C205.003 79.4964 205.36 79.2177 205.811 79.0153C206.266 78.8129 206.781 78.7116 207.356 78.7116C208.166 78.7116 208.801 78.8892 209.263 79.2443C209.728 79.5994 210.058 80.0682 210.254 80.6506ZM218.922 87.1918C218.403 87.1918 217.933 87.0941 217.51 86.8988C217.087 86.6999 216.752 86.4141 216.503 86.0412C216.255 85.6648 216.13 85.2102 216.13 84.6776C216.13 84.2088 216.223 83.8288 216.407 83.5376C216.592 83.2429 216.839 83.0121 217.148 82.8452C217.457 82.6783 217.798 82.554 218.17 82.4723C218.547 82.3871 218.925 82.3196 219.305 82.2699C219.802 82.206 220.205 82.158 220.514 82.1261C220.827 82.0906 221.054 82.032 221.196 81.9503C221.342 81.8686 221.414 81.7266 221.414 81.5241V81.4815C221.414 80.956 221.271 80.5476 220.983 80.2564C220.699 79.9652 220.267 79.8196 219.689 79.8196C219.088 79.8196 218.618 79.951 218.277 80.2138C217.936 80.4766 217.696 80.7571 217.558 81.0554L216.365 80.6293C216.578 80.1321 216.862 79.745 217.217 79.468C217.576 79.1875 217.966 78.9922 218.389 78.8821C218.815 78.7685 219.234 78.7116 219.646 78.7116C219.909 78.7116 220.211 78.7436 220.551 78.8075C220.896 78.8679 221.228 78.994 221.548 79.1857C221.871 79.3775 222.139 79.6669 222.352 80.054C222.565 80.4411 222.672 80.9595 222.672 81.6094V87H221.414V85.892H221.35C221.265 86.0696 221.123 86.2596 220.924 86.462C220.725 86.6644 220.461 86.8366 220.131 86.9787C219.8 87.1207 219.397 87.1918 218.922 87.1918ZM219.113 86.0625C219.61 86.0625 220.029 85.9648 220.37 85.7695C220.715 85.5742 220.974 85.3221 221.148 85.0131C221.326 84.7042 221.414 84.3793 221.414 84.0384V82.8878C221.361 82.9517 221.244 83.0103 221.063 83.0636C220.885 83.1133 220.679 83.1577 220.445 83.1967C220.214 83.2322 219.989 83.2642 219.768 83.2926C219.552 83.3175 219.376 83.3388 219.241 83.3565C218.914 83.3991 218.609 83.4684 218.325 83.5643C218.044 83.6566 217.817 83.7969 217.643 83.9851C217.473 84.1697 217.387 84.4219 217.387 84.7415C217.387 85.1783 217.549 85.5085 217.872 85.7322C218.199 85.9524 218.613 86.0625 219.113 86.0625ZM228.29 87.1705C227.523 87.1705 226.862 86.9893 226.308 86.6271C225.754 86.2649 225.328 85.766 225.03 85.1303C224.732 84.4947 224.582 83.7685 224.582 82.9517C224.582 82.1207 224.735 81.3874 225.041 80.7518C225.35 80.1126 225.779 79.6136 226.33 79.255C226.884 78.8928 227.53 78.7116 228.269 78.7116C228.844 78.7116 229.362 78.8182 229.824 79.0312C230.286 79.2443 230.664 79.5426 230.959 79.9261C231.253 80.3097 231.436 80.7571 231.507 81.2685H230.25C230.154 80.8956 229.941 80.5653 229.611 80.2777C229.284 79.9865 228.844 79.8409 228.29 79.8409C227.8 79.8409 227.37 79.9687 227.001 80.2244C226.635 80.4766 226.349 80.8335 226.143 81.2951C225.941 81.7532 225.84 82.2912 225.84 82.9091C225.84 83.5412 225.939 84.0916 226.138 84.5604C226.34 85.0291 226.624 85.3931 226.99 85.6523C227.359 85.9116 227.793 86.0412 228.29 86.0412C228.617 86.0412 228.913 85.9844 229.179 85.8707C229.446 85.7571 229.671 85.5938 229.856 85.3807C230.041 85.1676 230.172 84.9119 230.25 84.6136H231.507C231.436 85.0966 231.26 85.5316 230.98 85.9187C230.703 86.3022 230.335 86.6076 229.877 86.8349C229.423 87.0586 228.894 87.1705 228.29 87.1705ZM236.669 87.1705C235.902 87.1705 235.241 86.9893 234.687 86.6271C234.133 86.2649 233.707 85.766 233.409 85.1303C233.111 84.4947 232.961 83.7685 232.961 82.9517C232.961 82.1207 233.114 81.3874 233.419 80.7518C233.728 80.1126 234.158 79.6136 234.709 79.255C235.263 78.8928 235.909 78.7116 236.647 78.7116C237.223 78.7116 237.741 78.8182 238.203 79.0312C238.665 79.2443 239.043 79.5426 239.337 79.9261C239.632 80.3097 239.815 80.7571 239.886 81.2685H238.629C238.533 80.8956 238.32 80.5653 237.99 80.2777C237.663 79.9865 237.223 79.8409 236.669 79.8409C236.179 79.8409 235.749 79.9687 235.38 80.2244C235.014 80.4766 234.728 80.8335 234.522 81.2951C234.32 81.7532 234.218 82.2912 234.218 82.9091C234.218 83.5412 234.318 84.0916 234.517 84.5604C234.719 85.0291 235.003 85.3931 235.369 85.6523C235.738 85.9116 236.172 86.0412 236.669 86.0412C236.995 86.0412 237.292 85.9844 237.558 85.8707C237.825 85.7571 238.05 85.5938 238.235 85.3807C238.419 85.1676 238.551 84.9119 238.629 84.6136H239.886C239.815 85.0966 239.639 85.5316 239.359 85.9187C239.082 86.3022 238.714 86.6076 238.256 86.8349C237.802 87.0586 237.272 87.1705 236.669 87.1705ZM245.048 87.1705C244.309 87.1705 243.661 86.9947 243.103 86.6431C242.549 86.2915 242.116 85.7997 241.804 85.1676C241.495 84.5355 241.34 83.7969 241.34 82.9517C241.34 82.0994 241.495 81.3555 241.804 80.7198C242.116 80.0842 242.549 79.5906 243.103 79.239C243.661 78.8874 244.309 78.7116 245.048 78.7116C245.786 78.7116 246.433 78.8874 246.987 79.239C247.544 79.5906 247.977 80.0842 248.286 80.7198C248.599 81.3555 248.755 82.0994 248.755 82.9517C248.755 83.7969 248.599 84.5355 248.286 85.1676C247.977 85.7997 247.544 86.2915 246.987 86.6431C246.433 86.9947 245.786 87.1705 245.048 87.1705ZM245.048 86.0412C245.609 86.0412 246.07 85.8974 246.433 85.6097C246.795 85.3221 247.063 84.9439 247.237 84.4751C247.411 84.0064 247.498 83.4986 247.498 82.9517C247.498 82.4048 247.411 81.8952 247.237 81.4229C247.063 80.9506 246.795 80.5689 246.433 80.2777C246.07 79.9865 245.609 79.8409 245.048 79.8409C244.487 79.8409 244.025 79.9865 243.663 80.2777C243.301 80.5689 243.032 80.9506 242.858 81.4229C242.684 81.8952 242.597 82.4048 242.597 82.9517C242.597 83.4986 242.684 84.0064 242.858 84.4751C243.032 84.9439 243.301 85.3221 243.663 85.6097C244.025 85.8974 244.487 86.0412 245.048 86.0412ZM255.83 83.6548V78.8182H257.087V87H255.83V85.6151H255.745C255.553 86.0305 255.255 86.3839 254.85 86.6751C254.445 86.9627 253.934 87.1065 253.316 87.1065C252.805 87.1065 252.35 86.9947 251.952 86.771C251.555 86.5437 251.242 86.2028 251.015 85.7482C250.788 85.2901 250.674 84.7131 250.674 84.017V78.8182H251.931V83.9318C251.931 84.5284 252.098 85.0043 252.432 85.3594C252.769 85.7145 253.199 85.892 253.721 85.892C254.033 85.892 254.351 85.8121 254.674 85.6523C255.001 85.4925 255.275 85.2475 255.495 84.9173C255.718 84.587 255.83 84.1662 255.83 83.6548ZM260.647 82.0781V87H259.39V78.8182H260.604V80.0966H260.711C260.903 79.6811 261.194 79.3473 261.584 79.0952C261.975 78.8395 262.479 78.7116 263.097 78.7116C263.651 78.7116 264.136 78.8253 264.551 79.0526C264.967 79.2763 265.29 79.6172 265.521 80.0753C265.752 80.5298 265.867 81.1051 265.867 81.8011V87H264.61V81.8864C264.61 81.2436 264.443 80.7429 264.109 80.3842C263.775 80.022 263.317 79.8409 262.735 79.8409C262.334 79.8409 261.975 79.9279 261.659 80.1019C261.347 80.2759 261.1 80.5298 260.919 80.8636C260.737 81.1974 260.647 81.6023 260.647 82.0781ZM271.722 78.8182V79.8835H267.482V78.8182H271.722ZM268.718 76.858H269.975V84.6562C269.975 85.0114 270.027 85.2777 270.13 85.4553C270.236 85.6293 270.371 85.7464 270.535 85.8068C270.702 85.8636 270.877 85.892 271.062 85.892C271.2 85.892 271.314 85.8849 271.403 85.8707C271.492 85.853 271.563 85.8388 271.616 85.8281L271.872 86.9574C271.786 86.9893 271.667 87.0213 271.515 87.0533C271.362 87.0888 271.169 87.1065 270.934 87.1065C270.579 87.1065 270.231 87.0302 269.89 86.8775C269.553 86.7248 269.272 86.4922 269.048 86.1797C268.828 85.8672 268.718 85.473 268.718 84.9972V76.858Z" fill="white"/>
</g>
<path d="M34.3206 88.3175C34.6178 87.5443 34.2319 86.6764 33.4586 86.3792L20.8573 81.5358C20.0841 81.2386 19.2163 81.6245 18.919 82.3978C18.6218 83.1711 19.0077 84.0389 19.781 84.3361L30.9821 88.6413L26.6769 99.8424C26.3796 100.616 26.7656 101.484 27.5388 101.781C28.3121 102.078 29.1799 101.692 29.4771 100.919L34.3206 88.3175ZM5.91527 124.875C5.83888 125.7 6.44567 126.43 7.27057 126.507C8.09547 126.583 8.8261 125.976 8.90249 125.151L7.40888 125.013L5.91527 124.875ZM7.40888 125.013L8.90249 125.151C10.1122 112.087 16.2742 103.092 22.1512 97.3433C25.093 94.4655 27.9591 92.4066 30.0844 91.07C31.1462 90.4022 32.0205 89.9164 32.6235 89.6002C32.9248 89.4422 33.1581 89.3266 33.3128 89.2521C33.3901 89.2148 33.4477 89.1878 33.4844 89.1708C33.5027 89.1623 33.5157 89.1564 33.5234 89.1529C33.5272 89.1512 33.5297 89.1501 33.5308 89.1496C33.5313 89.1493 33.5315 89.1492 33.5314 89.1493C33.5313 89.1493 33.531 89.1495 33.5309 89.1495C33.5305 89.1497 33.5299 89.15 32.9204 87.7794C32.3109 86.4088 32.3102 86.4091 32.3094 86.4095C32.309 86.4096 32.3081 86.41 32.3073 86.4104C32.3058 86.4111 32.3039 86.4119 32.3017 86.4129C32.2972 86.4149 32.2913 86.4176 32.2841 86.4209C32.2696 86.4274 32.2496 86.4366 32.2243 86.4483C32.1737 86.4717 32.1018 86.5054 32.01 86.5497C31.8264 86.6382 31.5628 86.7689 31.2301 86.9434C30.5648 87.2923 29.6219 87.8169 28.4873 88.5304C26.2199 89.9564 23.1769 92.1432 20.0533 95.1988C13.7997 101.316 7.20583 110.938 5.91527 124.875L7.40888 125.013Z" fill="white"/>
<defs>
<radialGradient id="paint0_radial_4034_3757" cx="0" cy="0" r="1" gradientUnits="userSpaceOnUse" gradientTransform="translate(170.5 77) rotate(90) scale(146 380.5)">
<stop offset="0.423077" stop-color="#48515D"/>
<stop offset="1" stop-opacity="0"/>
</radialGradient>
<clipPath id="clip0_4034_3757">
<rect width="352" height="112" rx="8" fill="white"/>
</clipPath>
<clipPath id="clip1_4034_3757">
<rect width="20" height="20" fill="white" transform="translate(40 72)"/>
</clipPath>
</defs>
</svg>
