<svg width="352" height="143" viewBox="0 0 352 143" fill="none" xmlns="http://www.w3.org/2000/svg">
<g filter="url(#filter0_d_4011_3325)">
<rect x="24" y="6" width="303.003" height="162" rx="4" fill="white"/>
</g>
<mask id="path-2-inside-1_4011_3325" fill="white">
<path d="M24 10C24 7.79086 25.7909 6 28 6H323C325.209 6 327 7.79086 327 10V39H24V10Z"/>
</mask>
<path d="M24 10C24 7.79086 25.7909 6 28 6H323C325.209 6 327 7.79086 327 10V39H24V10Z" fill="#D9181F"/>
<path d="M24 6H327H24ZM327 41H24V37H327V41ZM24 39V6V39ZM327 6V39V6Z" fill="#FDC50F" mask="url(#path-2-inside-1_4011_3325)"/>
<rect y="99" width="352" height="51" fill="url(#paint0_linear_4011_3325)"/>
<path d="M118.038 24.2575L119.928 19.57C119.993 19.42 120.04 19.2975 120.07 19.2025C120.1 19.1075 120.088 18.9775 120.033 18.8125L119.89 18.3925C119.86 18.3025 119.823 18.245 119.778 18.22C119.738 18.19 119.658 18.175 119.538 18.175H118.773C118.638 18.175 118.555 18.1525 118.525 18.1075C118.5 18.0625 118.488 17.97 118.488 17.83V17.1775C118.488 16.9925 118.508 16.875 118.548 16.825C118.588 16.775 118.695 16.75 118.87 16.75H123.16C123.285 16.75 123.388 16.765 123.468 16.795C123.548 16.825 123.588 16.9075 123.588 17.0425V17.7625C123.588 17.9275 123.56 18.0375 123.505 18.0925C123.455 18.1475 123.348 18.175 123.183 18.175H122.77C122.58 18.175 122.463 18.1975 122.418 18.2425C122.378 18.2875 122.38 18.38 122.425 18.52L123.978 23.5525C124.023 23.6875 124.063 23.84 124.098 24.01C124.133 24.18 124.168 24.3275 124.203 24.4525C124.243 24.5725 124.285 24.6325 124.33 24.6325C124.365 24.6325 124.4 24.605 124.435 24.55C124.475 24.495 124.52 24.395 124.57 24.25L126.498 18.5425C126.548 18.3925 126.57 18.295 126.565 18.25C126.56 18.2 126.448 18.175 126.228 18.175H125.44C125.29 18.175 125.193 18.155 125.148 18.115C125.108 18.07 125.088 17.9675 125.088 17.8075V17.155C125.088 16.98 125.108 16.87 125.148 16.825C125.188 16.775 125.293 16.75 125.463 16.75H129.325C129.48 16.75 129.588 16.7675 129.648 16.8025C129.708 16.8325 129.738 16.9275 129.738 17.0875V17.8525C129.738 17.9975 129.715 18.0875 129.67 18.1225C129.63 18.1575 129.535 18.175 129.385 18.175H128.425C128.235 18.175 128.118 18.2025 128.073 18.2575C128.028 18.3075 127.983 18.4 127.938 18.535L124.765 27.9025C124.72 28.0175 124.675 28.0875 124.63 28.1125C124.585 28.1375 124.483 28.15 124.323 28.15H123.558C123.388 28.15 123.283 28.125 123.243 28.075C123.208 28.03 123.168 27.945 123.123 27.82L121.285 22.3975C121.23 22.2425 121.18 22.065 121.135 21.865C121.09 21.665 121.04 21.49 120.985 21.34C120.935 21.185 120.878 21.1075 120.813 21.1075C120.733 21.1075 120.645 21.225 120.55 21.46L117.918 27.82C117.868 27.945 117.823 28.03 117.783 28.075C117.748 28.125 117.633 28.15 117.438 28.15H116.71C116.52 28.15 116.398 28.13 116.343 28.09C116.293 28.05 116.243 27.9625 116.193 27.8275L112.885 18.5275C112.83 18.3775 112.775 18.2825 112.72 18.2425C112.665 18.1975 112.533 18.175 112.323 18.175H111.468C111.328 18.175 111.238 18.1575 111.198 18.1225C111.158 18.0875 111.138 18 111.138 17.86V17.1175C111.138 16.9475 111.163 16.845 111.213 16.81C111.268 16.77 111.375 16.75 111.535 16.75H116.523C116.693 16.75 116.813 16.7725 116.883 16.8175C116.953 16.8575 116.988 16.97 116.988 17.155V17.8225C116.988 17.9775 116.965 18.075 116.92 18.115C116.875 18.155 116.775 18.175 116.62 18.175H115.953C115.778 18.175 115.663 18.195 115.608 18.235C115.558 18.275 115.555 18.3625 115.6 18.4975L117.303 23.53C117.358 23.68 117.403 23.845 117.438 24.025C117.478 24.2 117.52 24.3525 117.565 24.4825C117.61 24.6075 117.663 24.67 117.723 24.67C117.783 24.67 117.835 24.635 117.88 24.565C117.93 24.495 117.983 24.3925 118.038 24.2575ZM131.476 18.175H130.478C130.338 18.175 130.251 18.1525 130.216 18.1075C130.186 18.0625 130.171 17.9725 130.171 17.8375V17.065C130.171 16.92 130.193 16.8325 130.238 16.8025C130.288 16.7675 130.378 16.75 130.508 16.75H140.393C140.553 16.75 140.653 16.7725 140.693 16.8175C140.733 16.8575 140.753 16.955 140.753 17.11V20.4325C140.753 20.5625 140.746 20.645 140.731 20.68C140.716 20.71 140.641 20.725 140.506 20.725H139.643C139.533 20.725 139.466 20.7 139.441 20.65C139.416 20.6 139.401 20.5275 139.396 20.4325C139.381 19.8725 139.308 19.4275 139.178 19.0975C139.048 18.7675 138.828 18.5325 138.518 18.3925C138.213 18.2475 137.783 18.175 137.228 18.175H134.686C134.546 18.175 134.446 18.195 134.386 18.235C134.331 18.27 134.303 18.365 134.303 18.52V21.3325C134.303 21.4775 134.318 21.5775 134.348 21.6325C134.378 21.6875 134.453 21.715 134.573 21.715H135.098C135.593 21.715 135.968 21.58 136.223 21.31C136.483 21.035 136.636 20.7 136.681 20.305C136.696 20.195 136.716 20.1175 136.741 20.0725C136.766 20.0275 136.823 20.005 136.913 20.005H137.453C137.578 20.005 137.658 20.0225 137.693 20.0575C137.733 20.0925 137.753 20.1725 137.753 20.2975V24.2725C137.753 24.3975 137.738 24.48 137.708 24.52C137.678 24.56 137.601 24.58 137.476 24.58H136.943C136.843 24.58 136.778 24.5575 136.748 24.5125C136.718 24.4625 136.693 24.3775 136.673 24.2575C136.643 23.9975 136.561 23.7575 136.426 23.5375C136.296 23.3175 136.121 23.14 135.901 23.005C135.686 22.87 135.431 22.8025 135.136 22.8025H134.618C134.503 22.8025 134.421 22.83 134.371 22.885C134.326 22.94 134.303 23.04 134.303 23.185V26.26C134.303 26.415 134.323 26.5075 134.363 26.5375C134.408 26.5625 134.511 26.575 134.671 26.575H137.078C137.723 26.575 138.221 26.495 138.571 26.335C138.926 26.17 139.173 25.9 139.313 25.525C139.458 25.145 139.536 24.6325 139.546 23.9875C139.551 23.8425 139.566 23.75 139.591 23.71C139.616 23.67 139.696 23.65 139.831 23.65H140.611C140.741 23.65 140.821 23.6675 140.851 23.7025C140.886 23.7325 140.903 23.815 140.903 23.95V27.7225C140.903 27.8525 140.888 27.9325 140.858 27.9625C140.828 27.9875 140.748 28 140.618 28H130.508C130.378 28 130.288 27.99 130.238 27.97C130.193 27.95 130.171 27.87 130.171 27.73V26.8C130.171 26.685 130.188 26.62 130.223 26.605C130.258 26.585 130.331 26.575 130.441 26.575H131.453C131.628 26.575 131.733 26.5575 131.768 26.5225C131.803 26.4825 131.821 26.3775 131.821 26.2075V18.475C131.821 18.335 131.798 18.25 131.753 18.22C131.713 18.19 131.621 18.175 131.476 18.175ZM143.488 18.175H142.4C142.3 18.175 142.233 18.16 142.198 18.13C142.168 18.095 142.153 18.02 142.153 17.905V17.065C142.153 16.93 142.17 16.845 142.205 16.81C142.24 16.77 142.323 16.75 142.453 16.75H147.748C147.883 16.75 147.973 16.7675 148.018 16.8025C148.063 16.8325 148.085 16.9175 148.085 17.0575V17.8675C148.085 18.0075 148.06 18.095 148.01 18.13C147.965 18.16 147.88 18.175 147.755 18.175H146.623C146.493 18.175 146.403 18.1925 146.353 18.2275C146.308 18.2575 146.285 18.34 146.285 18.475V26.245C146.285 26.385 146.305 26.475 146.345 26.515C146.39 26.555 146.483 26.575 146.623 26.575H148.603C149.218 26.575 149.713 26.485 150.088 26.305C150.468 26.12 150.748 25.8225 150.928 25.4125C151.113 25.0025 151.213 24.455 151.228 23.77C151.233 23.655 151.243 23.5825 151.258 23.5525C151.278 23.5175 151.348 23.5 151.468 23.5H152.218C152.328 23.5 152.403 23.5125 152.443 23.5375C152.488 23.5625 152.51 23.63 152.51 23.74V27.6325C152.51 27.7825 152.495 27.8825 152.465 27.9325C152.435 27.9775 152.345 28 152.195 28H142.483C142.353 28 142.265 27.9825 142.22 27.9475C142.175 27.9125 142.153 27.825 142.153 27.685V26.83C142.153 26.735 142.163 26.67 142.183 26.635C142.208 26.595 142.265 26.575 142.355 26.575H143.428C143.583 26.575 143.683 26.555 143.728 26.515C143.778 26.475 143.803 26.3775 143.803 26.2225V18.505C143.803 18.365 143.785 18.275 143.75 18.235C143.715 18.195 143.628 18.175 143.488 18.175ZM154.797 18.175H153.709C153.609 18.175 153.542 18.16 153.507 18.13C153.477 18.095 153.462 18.02 153.462 17.905V17.065C153.462 16.93 153.479 16.845 153.514 16.81C153.549 16.77 153.632 16.75 153.762 16.75H159.057C159.192 16.75 159.282 16.7675 159.327 16.8025C159.372 16.8325 159.394 16.9175 159.394 17.0575V17.8675C159.394 18.0075 159.369 18.095 159.319 18.13C159.274 18.16 159.189 18.175 159.064 18.175H157.932C157.802 18.175 157.712 18.1925 157.662 18.2275C157.617 18.2575 157.594 18.34 157.594 18.475V26.245C157.594 26.385 157.614 26.475 157.654 26.515C157.699 26.555 157.792 26.575 157.932 26.575H159.912C160.527 26.575 161.022 26.485 161.397 26.305C161.777 26.12 162.057 25.8225 162.237 25.4125C162.422 25.0025 162.522 24.455 162.537 23.77C162.542 23.655 162.552 23.5825 162.567 23.5525C162.587 23.5175 162.657 23.5 162.777 23.5H163.527C163.637 23.5 163.712 23.5125 163.752 23.5375C163.797 23.5625 163.819 23.63 163.819 23.74V27.6325C163.819 27.7825 163.804 27.8825 163.774 27.9325C163.744 27.9775 163.654 28 163.504 28H153.792C153.662 28 153.574 27.9825 153.529 27.9475C153.484 27.9125 153.462 27.825 153.462 27.685V26.83C153.462 26.735 153.472 26.67 153.492 26.635C153.517 26.595 153.574 26.575 153.664 26.575H154.737C154.892 26.575 154.992 26.555 155.037 26.515C155.087 26.475 155.112 26.3775 155.112 26.2225V18.505C155.112 18.365 155.094 18.275 155.059 18.235C155.024 18.195 154.937 18.175 154.797 18.175ZM172.645 20.26C172.575 19.755 172.398 19.33 172.113 18.985C171.828 18.64 171.475 18.3775 171.055 18.1975C170.64 18.0175 170.203 17.9275 169.743 17.9275C169.063 17.9275 168.563 18.0575 168.243 18.3175C167.923 18.5725 167.763 18.8925 167.763 19.2775C167.763 19.6275 167.88 19.9125 168.115 20.1325C168.355 20.3475 168.67 20.525 169.06 20.665C169.455 20.805 169.888 20.9375 170.358 21.0625C170.828 21.1825 171.295 21.325 171.76 21.49C172.23 21.65 172.66 21.86 173.05 22.12C173.445 22.38 173.76 22.7175 173.995 23.1325C174.235 23.5425 174.355 24.065 174.355 24.7C174.355 25.525 174.173 26.2 173.808 26.725C173.448 27.25 172.938 27.6375 172.278 27.8875C171.618 28.1375 170.848 28.2625 169.968 28.2625C169.348 28.2625 168.8 28.17 168.325 27.985C167.855 27.795 167.46 27.555 167.14 27.265C167.005 27.14 166.913 27.0975 166.863 27.1375C166.813 27.1775 166.743 27.2825 166.653 27.4525L166.473 27.8725C166.428 27.9625 166.378 28.0175 166.323 28.0375C166.268 28.0625 166.168 28.075 166.023 28.075H165.438C165.308 28.075 165.218 28.055 165.168 28.015C165.118 27.98 165.093 27.9 165.093 27.775V24.175C165.093 24.045 165.11 23.9625 165.145 23.9275C165.185 23.8925 165.27 23.875 165.4 23.875H166.105C166.245 23.875 166.323 23.8975 166.338 23.9425C166.358 23.9825 166.375 24.0625 166.39 24.1825C166.44 24.6425 166.6 25.08 166.87 25.495C167.14 25.905 167.505 26.2425 167.965 26.5075C168.43 26.7675 168.973 26.8975 169.593 26.8975C170.148 26.8975 170.6 26.82 170.95 26.665C171.305 26.51 171.568 26.305 171.738 26.05C171.908 25.795 171.993 25.52 171.993 25.225C171.993 24.83 171.873 24.515 171.633 24.28C171.398 24.04 171.085 23.845 170.695 23.695C170.305 23.545 169.875 23.4125 169.405 23.2975C168.94 23.1825 168.473 23.0525 168.003 22.9075C167.538 22.7575 167.11 22.5625 166.72 22.3225C166.33 22.0825 166.018 21.7675 165.783 21.3775C165.548 20.9825 165.43 20.48 165.43 19.87C165.43 19.29 165.538 18.7925 165.753 18.3775C165.968 17.9575 166.258 17.6125 166.623 17.3425C166.988 17.0725 167.4 16.875 167.86 16.75C168.325 16.625 168.803 16.5625 169.293 16.5625C169.818 16.5625 170.3 16.64 170.74 16.795C171.18 16.95 171.558 17.1575 171.873 17.4175C171.988 17.5075 172.08 17.5525 172.15 17.5525C172.22 17.5525 172.295 17.475 172.375 17.32L172.585 16.9C172.62 16.845 172.648 16.8075 172.668 16.7875C172.693 16.7625 172.75 16.75 172.84 16.75H173.658C173.773 16.75 173.848 16.77 173.883 16.81C173.923 16.85 173.943 16.93 173.943 17.05V20.35C173.943 20.485 173.92 20.57 173.875 20.605C173.835 20.635 173.745 20.65 173.605 20.65H173.028C172.838 20.65 172.733 20.625 172.713 20.575C172.693 20.525 172.67 20.42 172.645 20.26ZM181.268 18.175H180.046C179.966 18.175 179.913 18.1625 179.888 18.1375C179.868 18.1125 179.858 18.0575 179.858 17.9725V16.9225C179.858 16.8425 179.871 16.795 179.896 16.78C179.921 16.76 179.971 16.75 180.046 16.75H190.066C190.166 16.75 190.228 16.7675 190.253 16.8025C190.278 16.8375 190.291 16.9075 190.291 17.0125V20.6125C190.291 20.6975 190.273 20.75 190.238 20.77C190.203 20.79 190.141 20.8 190.051 20.8H189.188C189.083 20.8 189.016 20.79 188.986 20.77C188.956 20.745 188.941 20.6825 188.941 20.5825C188.931 19.9925 188.861 19.5225 188.731 19.1725C188.606 18.8225 188.388 18.57 188.078 18.415C187.768 18.255 187.331 18.175 186.766 18.175H184.276C184.166 18.175 184.091 18.195 184.051 18.235C184.011 18.27 183.991 18.3375 183.991 18.4375V21.67C183.991 21.75 184.001 21.805 184.021 21.835C184.046 21.86 184.096 21.8725 184.171 21.8725H184.741C185.226 21.8725 185.608 21.7425 185.888 21.4825C186.173 21.2225 186.336 20.8775 186.376 20.4475C186.386 20.3675 186.391 20.3125 186.391 20.2825C186.396 20.2475 186.443 20.23 186.533 20.23H187.238C187.318 20.23 187.371 20.2425 187.396 20.2675C187.426 20.2925 187.441 20.3475 187.441 20.4325V24.595C187.441 24.67 187.428 24.725 187.403 24.76C187.383 24.79 187.331 24.805 187.246 24.805H186.601C186.511 24.805 186.453 24.795 186.428 24.775C186.408 24.75 186.393 24.6975 186.383 24.6175C186.353 24.1625 186.196 23.795 185.911 23.515C185.626 23.23 185.241 23.0875 184.756 23.0875H184.148C184.073 23.0875 184.028 23.1025 184.013 23.1325C183.998 23.1625 183.991 23.2075 183.991 23.2675V26.245C183.991 26.38 184.008 26.47 184.043 26.515C184.078 26.555 184.166 26.575 184.306 26.575H185.618C185.723 26.575 185.791 26.585 185.821 26.605C185.851 26.62 185.866 26.68 185.866 26.785V27.7075C185.866 27.8325 185.846 27.9125 185.806 27.9475C185.766 27.9825 185.686 28 185.566 28H180.106C180.006 28 179.938 27.99 179.903 27.97C179.873 27.95 179.858 27.89 179.858 27.79V26.7475C179.858 26.6625 179.876 26.6125 179.911 26.5975C179.951 26.5825 180.016 26.575 180.106 26.575H181.246C181.366 26.575 181.438 26.5575 181.463 26.5225C181.493 26.4825 181.508 26.4025 181.508 26.2825V18.4225C181.508 18.3125 181.493 18.245 181.463 18.22C181.433 18.19 181.368 18.175 181.268 18.175ZM194.53 19.45L192.993 23.0725C192.953 23.1725 192.935 23.2575 192.94 23.3275C192.945 23.3925 193.033 23.425 193.203 23.425H195.888C196.088 23.425 196.19 23.3925 196.195 23.3275C196.205 23.2575 196.185 23.155 196.135 23.02L194.815 19.4575C194.76 19.2925 194.71 19.22 194.665 19.24C194.625 19.255 194.58 19.325 194.53 19.45ZM188.358 27.625V26.8525C188.358 26.7525 188.375 26.6825 188.41 26.6425C188.45 26.5975 188.525 26.575 188.635 26.575H189.73C189.87 26.575 189.958 26.55 189.993 26.5C190.028 26.45 190.065 26.3775 190.105 26.2825L194.23 16.69C194.26 16.61 194.293 16.5625 194.328 16.5475C194.363 16.5325 194.435 16.525 194.545 16.525H195.97C196.09 16.525 196.17 16.54 196.21 16.57C196.25 16.6 196.285 16.655 196.315 16.735L200.08 26.1775C200.135 26.3075 200.178 26.4075 200.208 26.4775C200.238 26.5425 200.35 26.575 200.545 26.575H201.633C201.748 26.575 201.825 26.5875 201.865 26.6125C201.91 26.6375 201.933 26.7125 201.933 26.8375V27.7C201.933 27.83 201.918 27.9125 201.888 27.9475C201.858 27.9825 201.778 28 201.648 28H196.075C195.955 28 195.875 27.9825 195.835 27.9475C195.8 27.9075 195.783 27.8225 195.783 27.6925V26.8525C195.783 26.7275 195.803 26.65 195.843 26.62C195.883 26.59 195.96 26.575 196.075 26.575H197.073C197.243 26.575 197.335 26.55 197.35 26.5C197.37 26.445 197.36 26.3625 197.32 26.2525L196.893 25.0975C196.843 24.9675 196.8 24.8825 196.765 24.8425C196.73 24.7975 196.615 24.775 196.42 24.775H192.67C192.51 24.775 192.4 24.7875 192.34 24.8125C192.285 24.8375 192.233 24.9075 192.183 25.0225L191.673 26.23C191.623 26.35 191.608 26.4375 191.628 26.4925C191.648 26.5475 191.733 26.575 191.883 26.575H192.843C192.948 26.575 193.013 26.5925 193.038 26.6275C193.068 26.6625 193.083 26.7325 193.083 26.8375V27.7375C193.083 27.8625 193.065 27.9375 193.03 27.9625C193 27.9875 192.928 28 192.813 28H188.793C188.618 28 188.5 27.9825 188.44 27.9475C188.385 27.9125 188.358 27.805 188.358 27.625ZM214.972 26.485C214.722 26.99 214.384 27.4075 213.959 27.7375C213.534 28.0625 212.972 28.225 212.272 28.225C211.737 28.225 211.322 28.1325 211.027 27.9475C210.732 27.7625 210.514 27.5175 210.374 27.2125C210.239 26.9075 210.144 26.5725 210.089 26.2075C210.034 25.8425 209.984 25.4775 209.939 25.1125C209.894 24.7475 209.817 24.4125 209.707 24.1075C209.597 23.8025 209.419 23.5575 209.174 23.3725C208.929 23.1825 208.574 23.0875 208.109 23.0875H206.849C206.694 23.0875 206.602 23.1125 206.572 23.1625C206.547 23.2075 206.534 23.3075 206.534 23.4625V26.2975C206.534 26.4125 206.549 26.4875 206.579 26.5225C206.609 26.5575 206.684 26.575 206.804 26.575H207.892C208.012 26.575 208.089 26.595 208.124 26.635C208.164 26.67 208.184 26.7525 208.184 26.8825V27.6175C208.184 27.7775 208.164 27.8825 208.124 27.9325C208.089 27.9775 207.992 28 207.832 28H202.679C202.569 28 202.494 27.985 202.454 27.955C202.419 27.92 202.402 27.8475 202.402 27.7375V26.8675C202.402 26.7425 202.419 26.6625 202.454 26.6275C202.494 26.5925 202.574 26.575 202.694 26.575H203.662C203.827 26.575 203.932 26.555 203.977 26.515C204.027 26.475 204.052 26.375 204.052 26.215V18.55C204.052 18.38 204.027 18.275 203.977 18.235C203.932 18.195 203.829 18.175 203.669 18.175H202.709C202.569 18.175 202.482 18.15 202.447 18.1C202.417 18.05 202.402 17.955 202.402 17.815V17.02C202.402 16.905 202.419 16.8325 202.454 16.8025C202.489 16.7675 202.564 16.75 202.679 16.75H208.784C209.814 16.75 210.649 16.8775 211.289 17.1325C211.929 17.3825 212.397 17.7325 212.692 18.1825C212.987 18.6275 213.134 19.1375 213.134 19.7125C213.134 20.3225 212.997 20.8375 212.722 21.2575C212.452 21.6775 211.984 22.0025 211.319 22.2325C211.154 22.2875 211.059 22.345 211.034 22.405C211.009 22.465 211.087 22.545 211.267 22.645C211.607 22.825 211.859 23.0425 212.024 23.2975C212.194 23.5525 212.312 23.8225 212.377 24.1075C212.447 24.3925 212.489 24.6725 212.504 24.9475C212.519 25.2175 212.539 25.465 212.564 25.69C212.589 25.915 212.644 26.095 212.729 26.23C212.814 26.365 212.962 26.4325 213.172 26.4325C213.297 26.4325 213.424 26.38 213.554 26.275C213.684 26.165 213.799 26.015 213.899 25.825C213.954 25.73 214.002 25.6725 214.042 25.6525C214.087 25.6325 214.159 25.655 214.259 25.72L214.837 26.08C214.942 26.145 215.004 26.205 215.024 26.26C215.044 26.31 215.027 26.385 214.972 26.485ZM206.902 21.6625H208.784C209.114 21.6625 209.414 21.595 209.684 21.46C209.959 21.325 210.177 21.13 210.337 20.875C210.497 20.62 210.577 20.3075 210.577 19.9375C210.577 19.5675 210.497 19.2525 210.337 18.9925C210.177 18.7275 209.959 18.525 209.684 18.385C209.414 18.245 209.114 18.175 208.784 18.175H206.864C206.709 18.175 206.614 18.195 206.579 18.235C206.549 18.275 206.534 18.375 206.534 18.535V21.31C206.534 21.48 206.552 21.5825 206.587 21.6175C206.627 21.6475 206.732 21.6625 206.902 21.6625ZM222.105 22H227.453C227.613 22 227.715 22.02 227.76 22.06C227.805 22.095 227.828 22.1975 227.828 22.3675V23.2375C227.828 23.3575 227.808 23.4325 227.768 23.4625C227.733 23.4875 227.653 23.5 227.528 23.5H226.59C226.48 23.5 226.408 23.5175 226.373 23.5525C226.343 23.5825 226.328 23.655 226.328 23.77V24.94C226.328 25.09 226.32 25.2075 226.305 25.2925C226.29 25.3725 226.255 25.46 226.2 25.555C226.04 25.835 225.813 26.1325 225.518 26.4475C225.223 26.7575 224.858 27.0475 224.423 27.3175C223.993 27.5875 223.49 27.8075 222.915 27.9775C222.345 28.1425 221.708 28.225 221.003 28.225C220.148 28.225 219.36 28.085 218.64 27.805C217.92 27.525 217.293 27.1275 216.758 26.6125C216.223 26.0975 215.808 25.4825 215.513 24.7675C215.223 24.0475 215.078 23.25 215.078 22.375C215.078 21.54 215.228 20.7675 215.528 20.0575C215.828 19.3425 216.245 18.7225 216.78 18.1975C217.32 17.6675 217.95 17.2575 218.67 16.9675C219.39 16.6725 220.168 16.525 221.003 16.525C221.693 16.525 222.295 16.6225 222.81 16.8175C223.325 17.0075 223.765 17.2675 224.13 17.5975C224.23 17.6775 224.305 17.7125 224.355 17.7025C224.405 17.6925 224.463 17.6275 224.528 17.5075L224.805 16.915C224.84 16.855 224.878 16.8075 224.918 16.7725C224.958 16.7325 225.018 16.7125 225.098 16.7125H225.825C225.92 16.7125 225.99 16.7275 226.035 16.7575C226.08 16.7875 226.103 16.85 226.103 16.945V20.2675C226.103 20.3875 226.09 20.4825 226.065 20.5525C226.04 20.6175 225.965 20.65 225.84 20.65H224.925C224.75 20.65 224.645 20.6275 224.61 20.5825C224.58 20.5375 224.545 20.4525 224.505 20.3275C224.375 19.8725 224.183 19.4625 223.928 19.0975C223.673 18.7325 223.328 18.4425 222.893 18.2275C222.463 18.0125 221.913 17.905 221.243 17.905C220.573 17.905 219.985 18.095 219.48 18.475C218.98 18.85 218.59 19.3725 218.31 20.0425C218.03 20.7125 217.89 21.49 217.89 22.375C217.89 23.26 218.01 24.04 218.25 24.715C218.49 25.39 218.84 25.92 219.3 26.305C219.765 26.685 220.333 26.875 221.003 26.875C221.538 26.875 221.98 26.795 222.33 26.635C222.685 26.475 222.97 26.2725 223.185 26.0275C223.4 25.7775 223.563 25.525 223.673 25.27C223.708 25.185 223.733 25.105 223.748 25.03C223.768 24.95 223.778 24.8475 223.778 24.7225V23.7925C223.778 23.6625 223.755 23.5825 223.71 23.5525C223.67 23.5175 223.59 23.5 223.47 23.5H222.075C221.925 23.5 221.833 23.475 221.798 23.425C221.768 23.37 221.753 23.2725 221.753 23.1325V22.33C221.753 22.18 221.775 22.0875 221.82 22.0525C221.865 22.0175 221.96 22 222.105 22ZM228.979 22.375C228.979 21.535 229.112 20.76 229.377 20.05C229.642 19.34 230.027 18.7225 230.532 18.1975C231.042 17.6675 231.657 17.2575 232.377 16.9675C233.102 16.6725 233.919 16.525 234.829 16.525C235.739 16.525 236.557 16.6725 237.282 16.9675C238.007 17.2575 238.622 17.6675 239.127 18.1975C239.632 18.7225 240.017 19.34 240.282 20.05C240.547 20.76 240.679 21.535 240.679 22.375C240.679 23.215 240.539 23.99 240.259 24.7C239.984 25.41 239.587 26.03 239.067 26.56C238.552 27.085 237.934 27.495 237.214 27.79C236.499 28.08 235.704 28.225 234.829 28.225C233.919 28.225 233.102 28.08 232.377 27.79C231.657 27.495 231.042 27.085 230.532 26.56C230.027 26.03 229.642 25.41 229.377 24.7C229.112 23.99 228.979 23.215 228.979 22.375ZM231.792 22.375C231.792 23.015 231.849 23.61 231.964 24.16C232.079 24.71 232.257 25.1875 232.497 25.5925C232.742 25.9975 233.057 26.3125 233.442 26.5375C233.832 26.7625 234.294 26.875 234.829 26.875C235.409 26.875 235.892 26.7625 236.277 26.5375C236.667 26.3125 236.977 25.9975 237.207 25.5925C237.442 25.1875 237.609 24.71 237.709 24.16C237.814 23.61 237.867 23.015 237.867 22.375C237.867 21.73 237.809 21.135 237.694 20.59C237.579 20.04 237.399 19.5625 237.154 19.1575C236.914 18.7525 236.602 18.4375 236.217 18.2125C235.837 17.9875 235.374 17.875 234.829 17.875C234.294 17.875 233.832 17.9875 233.442 18.2125C233.057 18.4375 232.742 18.7525 232.497 19.1575C232.257 19.5625 232.079 20.04 231.964 20.59C231.849 21.135 231.792 21.73 231.792 22.375Z" fill="white"/>
<g clip-path="url(#clip0_4011_3325)">
<path d="M48.8848 65.875L47.6348 64.6458C47.482 64.4931 47.3084 64.4167 47.1139 64.4167C46.9195 64.4167 46.7459 64.4931 46.5931 64.6458C46.4403 64.7986 46.3639 64.9792 46.3639 65.1875C46.3639 65.3819 46.4403 65.5556 46.5931 65.7083L48.3639 67.4792C48.5167 67.6319 48.6903 67.7083 48.8848 67.7083C49.0792 67.7083 49.2528 67.6319 49.4056 67.4792L53.3014 63.5833C53.4542 63.4306 53.5306 63.2569 53.5306 63.0625C53.5306 62.8542 53.4542 62.6736 53.3014 62.5208C53.1487 62.3681 52.975 62.2917 52.7806 62.2917C52.5862 62.2917 52.4125 62.3681 52.2598 62.5208L48.8848 65.875ZM44.4473 72C44.0306 72 43.6764 71.8542 43.3848 71.5625C43.0931 71.2708 42.9473 70.9167 42.9473 70.5V59.5C42.9473 59.0833 43.0931 58.7292 43.3848 58.4375C43.6764 58.1458 44.0306 58 44.4473 58H55.4473C55.8639 58 56.2181 58.1458 56.5098 58.4375C56.8014 58.7292 56.9473 59.0833 56.9473 59.5V70.5C56.9473 70.9167 56.8014 71.2708 56.5098 71.5625C56.2181 71.8542 55.8639 72 55.4473 72H44.4473Z" fill="#3B3331"/>
</g>
<path d="M73.1206 61.8813C72.6763 61.8813 72.2785 61.9618 71.9272 62.1226C71.5802 62.2834 71.2861 62.5161 71.0449 62.8208C70.8037 63.1213 70.6196 63.4873 70.4927 63.9189C70.3657 64.3464 70.3022 64.8288 70.3022 65.3662C70.3022 66.0856 70.4038 66.7056 70.6069 67.2261C70.8101 67.7424 71.119 68.1401 71.5337 68.4194C71.9484 68.6945 72.4731 68.832 73.1079 68.832C73.5015 68.832 73.8844 68.7939 74.2568 68.7178C74.6292 68.6416 75.0143 68.5379 75.4121 68.4067V69.7017C75.0355 69.8498 74.6546 69.9577 74.2695 70.0254C73.8844 70.0931 73.4401 70.127 72.9365 70.127C71.9886 70.127 71.2015 69.9302 70.5752 69.5366C69.9531 69.1431 69.4876 68.5887 69.1787 67.8735C68.874 67.1584 68.7217 66.3205 68.7217 65.3599C68.7217 64.6574 68.819 64.0142 69.0137 63.4302C69.2083 62.8462 69.4919 62.3426 69.8643 61.9194C70.2367 61.492 70.6958 61.1641 71.2417 60.9355C71.7918 60.7028 72.4202 60.5864 73.127 60.5864C73.5924 60.5864 74.0495 60.6393 74.498 60.7451C74.9508 60.8467 75.3698 60.9927 75.7549 61.1831L75.2217 62.4399C74.9001 62.2876 74.5636 62.1564 74.2124 62.0464C73.8612 61.9364 73.4972 61.8813 73.1206 61.8813ZM78.7446 60.123V62.605C78.7446 62.8631 78.7362 63.1149 78.7192 63.3604C78.7065 63.6058 78.6917 63.7962 78.6748 63.9316H78.7573C78.9054 63.6862 79.0874 63.4852 79.3032 63.3286C79.519 63.1678 79.7603 63.0472 80.0269 62.9668C80.2977 62.8864 80.5854 62.8462 80.8901 62.8462C81.4276 62.8462 81.8846 62.9372 82.2612 63.1191C82.6379 63.2969 82.9256 63.5741 83.1245 63.9507C83.3276 64.3273 83.4292 64.8161 83.4292 65.417V70H81.9375V65.6963C81.9375 65.1504 81.8254 64.742 81.6011 64.4712C81.3768 64.1961 81.0298 64.0586 80.5601 64.0586C80.1073 64.0586 79.7476 64.1538 79.481 64.3442C79.2186 64.5304 79.0303 64.8076 78.916 65.1758C78.8018 65.5397 78.7446 65.984 78.7446 66.5088V70H77.2529V60.123H78.7446ZM88.3169 62.8398C88.9432 62.8398 89.4806 62.9689 89.9292 63.2271C90.3778 63.4852 90.7227 63.8512 90.9639 64.3252C91.2051 64.7992 91.3257 65.3662 91.3257 66.0264V66.8262H86.6348C86.6517 67.5075 86.8337 68.0322 87.1807 68.4004C87.5319 68.7686 88.0228 68.9526 88.6533 68.9526C89.1019 68.9526 89.5039 68.9103 89.8594 68.8257C90.2191 68.7368 90.5894 68.6077 90.9702 68.4385V69.6509C90.619 69.8159 90.2614 69.9365 89.8975 70.0127C89.5335 70.0889 89.0977 70.127 88.5898 70.127C87.9001 70.127 87.2928 69.9937 86.7681 69.7271C86.2476 69.4562 85.8392 69.0542 85.543 68.521C85.251 67.9878 85.105 67.3255 85.105 66.5342C85.105 65.7471 85.2383 65.0785 85.5049 64.5283C85.7715 63.9782 86.146 63.5592 86.6284 63.2715C87.1108 62.9837 87.6737 62.8398 88.3169 62.8398ZM88.3169 63.9634C87.8472 63.9634 87.4663 64.1157 87.1743 64.4204C86.8866 64.7251 86.7173 65.1715 86.6665 65.7598H89.8657C89.8615 65.4085 89.8022 65.0975 89.688 64.8267C89.578 64.5558 89.4087 64.3442 89.1802 64.1919C88.9559 64.0396 88.6681 63.9634 88.3169 63.9634ZM95.8389 70.127C95.1745 70.127 94.599 69.9979 94.1123 69.7397C93.6257 69.4816 93.2511 69.0859 92.9888 68.5527C92.7264 68.0195 92.5952 67.3424 92.5952 66.5215C92.5952 65.6667 92.7391 64.9684 93.0269 64.4268C93.3146 63.8851 93.7124 63.4852 94.2202 63.2271C94.7323 62.9689 95.3184 62.8398 95.9785 62.8398C96.3975 62.8398 96.7762 62.8822 97.1147 62.9668C97.4575 63.0472 97.7474 63.1466 97.9844 63.2651L97.54 64.4585C97.2819 64.3527 97.0174 64.2638 96.7466 64.1919C96.4757 64.12 96.2155 64.084 95.9658 64.084C95.5553 64.084 95.2126 64.175 94.9375 64.3569C94.6667 64.5389 94.4635 64.8097 94.3281 65.1694C94.1969 65.5291 94.1313 65.9756 94.1313 66.5088C94.1313 67.0251 94.1991 67.4609 94.3345 67.8164C94.4699 68.1676 94.6709 68.4342 94.9375 68.6162C95.2041 68.7939 95.5321 68.8828 95.9214 68.8828C96.3065 68.8828 96.6514 68.8363 96.9561 68.7432C97.2607 68.6501 97.5485 68.5295 97.8193 68.3813V69.6763C97.5527 69.8286 97.2671 69.9408 96.9624 70.0127C96.6577 70.0889 96.2832 70.127 95.8389 70.127ZM100.961 60.123V64.8965C100.961 65.1123 100.953 65.3493 100.936 65.6074C100.919 65.8613 100.902 66.1004 100.885 66.3247H100.917C101.027 66.1766 101.158 66.0031 101.311 65.8042C101.467 65.6053 101.615 65.4318 101.755 65.2837L103.9 62.9731H105.614L102.802 65.9946L105.798 70H104.046L101.799 66.915L100.961 67.6323V70H99.4697V60.123H100.961ZM108.414 62.9731V70H106.922V62.9731H108.414ZM107.677 60.2817C107.906 60.2817 108.103 60.3431 108.268 60.4658C108.437 60.5885 108.521 60.8001 108.521 61.1006C108.521 61.3968 108.437 61.6084 108.268 61.7354C108.103 61.8581 107.906 61.9194 107.677 61.9194C107.44 61.9194 107.239 61.8581 107.074 61.7354C106.913 61.6084 106.833 61.3968 106.833 61.1006C106.833 60.8001 106.913 60.5885 107.074 60.4658C107.239 60.3431 107.44 60.2817 107.677 60.2817ZM114.215 62.8398C115.007 62.8398 115.622 63.0451 116.062 63.4556C116.507 63.8618 116.729 64.5156 116.729 65.417V70H115.237V65.6963C115.237 65.1504 115.125 64.742 114.901 64.4712C114.677 64.1961 114.33 64.0586 113.86 64.0586C113.179 64.0586 112.705 64.2681 112.438 64.687C112.176 65.106 112.044 65.7132 112.044 66.5088V70H110.553V62.9731H111.714L111.924 63.9253H112.006C112.159 63.6799 112.347 63.4788 112.571 63.3223C112.8 63.1615 113.054 63.0409 113.333 62.9604C113.617 62.88 113.911 62.8398 114.215 62.8398ZM120.823 73.123C119.871 73.123 119.141 72.9517 118.633 72.6089C118.125 72.2661 117.872 71.7858 117.872 71.168C117.872 70.7363 118.007 70.3703 118.278 70.0698C118.549 69.7736 118.936 69.5684 119.439 69.4541C119.249 69.3695 119.084 69.2383 118.944 69.0605C118.809 68.8786 118.741 68.6776 118.741 68.4575C118.741 68.1951 118.815 67.9709 118.963 67.7847C119.111 67.5985 119.334 67.4186 119.63 67.2451C119.262 67.0885 118.965 66.8346 118.741 66.4834C118.521 66.1279 118.411 65.7111 118.411 65.2329C118.411 64.7251 118.519 64.2935 118.735 63.938C118.951 63.5783 119.266 63.3053 119.681 63.1191C120.095 62.9287 120.597 62.8335 121.185 62.8335C121.312 62.8335 121.45 62.842 121.598 62.8589C121.75 62.8716 121.89 62.8885 122.017 62.9097C122.148 62.9266 122.247 62.9456 122.315 62.9668H124.746V63.7983L123.553 64.0205C123.667 64.1813 123.758 64.3654 123.826 64.5728C123.893 64.7759 123.927 64.998 123.927 65.2393C123.927 65.9671 123.675 66.5405 123.172 66.9595C122.673 67.3742 121.983 67.5815 121.103 67.5815C120.891 67.5731 120.686 67.5562 120.487 67.5308C120.334 67.6239 120.218 67.7275 120.138 67.8418C120.057 67.9518 120.017 68.0767 120.017 68.2163C120.017 68.3306 120.057 68.4237 120.138 68.4956C120.218 68.5633 120.337 68.6141 120.493 68.6479C120.654 68.6818 120.849 68.6987 121.077 68.6987H122.29C123.06 68.6987 123.648 68.8617 124.054 69.1875C124.46 69.5133 124.664 69.9915 124.664 70.6221C124.664 71.4219 124.333 72.0376 123.673 72.4692C123.013 72.9051 122.063 73.123 120.823 73.123ZM120.88 72.0757C121.401 72.0757 121.839 72.0249 122.194 71.9233C122.55 71.8218 122.819 71.6758 123 71.4854C123.182 71.2992 123.273 71.077 123.273 70.8188C123.273 70.5903 123.216 70.4147 123.102 70.292C122.988 70.1693 122.816 70.0846 122.588 70.0381C122.359 69.9915 122.076 69.9683 121.737 69.9683H120.633C120.358 69.9683 120.114 70.0106 119.903 70.0952C119.691 70.1841 119.526 70.311 119.408 70.4761C119.293 70.6411 119.236 70.84 119.236 71.0728C119.236 71.3944 119.378 71.6419 119.662 71.8154C119.949 71.9889 120.356 72.0757 120.88 72.0757ZM121.172 66.604C121.608 66.604 121.932 66.4855 122.144 66.2485C122.355 66.0073 122.461 65.6688 122.461 65.2329C122.461 64.759 122.351 64.4035 122.131 64.1665C121.915 63.9295 121.593 63.811 121.166 63.811C120.747 63.811 120.428 63.9316 120.208 64.1729C119.992 64.4141 119.884 64.7716 119.884 65.2456C119.884 65.673 119.992 66.0073 120.208 66.2485C120.428 66.4855 120.749 66.604 121.172 66.604ZM132.16 62.8398C133.049 62.8398 133.72 63.0366 134.172 63.4302C134.629 63.8237 134.858 64.4373 134.858 65.271V70H133.798L133.512 69.0034H133.461C133.263 69.2573 133.057 69.4668 132.846 69.6318C132.634 69.7969 132.389 69.9196 132.109 70C131.834 70.0846 131.498 70.127 131.1 70.127C130.681 70.127 130.307 70.0508 129.977 69.8984C129.646 69.7419 129.386 69.5049 129.196 69.1875C129.005 68.8701 128.91 68.4681 128.91 67.9814C128.91 67.2578 129.179 66.714 129.716 66.3501C130.258 65.9862 131.075 65.7852 132.167 65.7471L133.385 65.7026V65.3345C133.385 64.8478 133.271 64.5008 133.042 64.2935C132.818 64.0861 132.501 63.9824 132.09 63.9824C131.739 63.9824 131.398 64.0332 131.068 64.1348C130.738 64.2363 130.417 64.3612 130.104 64.5093L129.621 63.4556C129.964 63.2736 130.353 63.1255 130.789 63.0112C131.229 62.897 131.686 62.8398 132.16 62.8398ZM133.379 66.6421L132.471 66.6738C131.726 66.6992 131.204 66.8262 130.903 67.0547C130.603 67.2832 130.453 67.5964 130.453 67.9941C130.453 68.3411 130.556 68.5951 130.764 68.7559C130.971 68.9124 131.244 68.9907 131.583 68.9907C132.099 68.9907 132.526 68.8447 132.865 68.5527C133.208 68.2565 133.379 67.8228 133.379 67.2515V66.6421ZM139.777 70.127C139.113 70.127 138.537 69.9979 138.051 69.7397C137.564 69.4816 137.19 69.0859 136.927 68.5527C136.665 68.0195 136.534 67.3424 136.534 66.5215C136.534 65.6667 136.678 64.9684 136.965 64.4268C137.253 63.8851 137.651 63.4852 138.159 63.2271C138.671 62.9689 139.257 62.8398 139.917 62.8398C140.336 62.8398 140.715 62.8822 141.053 62.9668C141.396 63.0472 141.686 63.1466 141.923 63.2651L141.479 64.4585C141.22 64.3527 140.956 64.2638 140.685 64.1919C140.414 64.12 140.154 64.084 139.904 64.084C139.494 64.084 139.151 64.175 138.876 64.3569C138.605 64.5389 138.402 64.8097 138.267 65.1694C138.135 65.5291 138.07 65.9756 138.07 66.5088C138.07 67.0251 138.138 67.4609 138.273 67.8164C138.408 68.1676 138.609 68.4342 138.876 68.6162C139.143 68.7939 139.471 68.8828 139.86 68.8828C140.245 68.8828 140.59 68.8363 140.895 68.7432C141.199 68.6501 141.487 68.5295 141.758 68.3813V69.6763C141.491 69.8286 141.206 69.9408 140.901 70.0127C140.596 70.0889 140.222 70.127 139.777 70.127ZM146.239 70.127C145.575 70.127 144.999 69.9979 144.513 69.7397C144.026 69.4816 143.652 69.0859 143.389 68.5527C143.127 68.0195 142.996 67.3424 142.996 66.5215C142.996 65.6667 143.139 64.9684 143.427 64.4268C143.715 63.8851 144.113 63.4852 144.621 63.2271C145.133 62.9689 145.719 62.8398 146.379 62.8398C146.798 62.8398 147.177 62.8822 147.515 62.9668C147.858 63.0472 148.148 63.1466 148.385 63.2651L147.94 64.4585C147.682 64.3527 147.418 64.2638 147.147 64.1919C146.876 64.12 146.616 64.084 146.366 64.084C145.956 64.084 145.613 64.175 145.338 64.3569C145.067 64.5389 144.864 64.8097 144.729 65.1694C144.597 65.5291 144.532 65.9756 144.532 66.5088C144.532 67.0251 144.599 67.4609 144.735 67.8164C144.87 68.1676 145.071 68.4342 145.338 68.6162C145.604 68.7939 145.932 68.8828 146.322 68.8828C146.707 68.8828 147.052 68.8363 147.356 68.7432C147.661 68.6501 147.949 68.5295 148.22 68.3813V69.6763C147.953 69.8286 147.667 69.9408 147.363 70.0127C147.058 70.0889 146.684 70.127 146.239 70.127ZM156.091 66.4707C156.091 67.0547 156.015 67.5731 155.862 68.0259C155.71 68.4787 155.488 68.8617 155.196 69.1748C154.904 69.4837 154.553 69.7207 154.142 69.8857C153.732 70.0465 153.268 70.127 152.752 70.127C152.27 70.127 151.827 70.0465 151.425 69.8857C151.023 69.7207 150.674 69.4837 150.378 69.1748C150.086 68.8617 149.86 68.4787 149.699 68.0259C149.538 67.5731 149.458 67.0547 149.458 66.4707C149.458 65.6963 149.591 65.0404 149.857 64.5029C150.128 63.9613 150.513 63.5487 151.013 63.2651C151.512 62.9816 152.107 62.8398 152.796 62.8398C153.444 62.8398 154.015 62.9816 154.51 63.2651C155.005 63.5487 155.393 63.9613 155.672 64.5029C155.951 65.0446 156.091 65.7005 156.091 66.4707ZM150.994 66.4707C150.994 66.9827 151.055 67.4207 151.178 67.7847C151.305 68.1486 151.499 68.4279 151.762 68.6226C152.024 68.813 152.363 68.9082 152.777 68.9082C153.192 68.9082 153.531 68.813 153.793 68.6226C154.055 68.4279 154.248 68.1486 154.371 67.7847C154.493 67.4207 154.555 66.9827 154.555 66.4707C154.555 65.9587 154.493 65.5249 154.371 65.1694C154.248 64.8097 154.055 64.5368 153.793 64.3506C153.531 64.1602 153.19 64.0649 152.771 64.0649C152.153 64.0649 151.702 64.2723 151.419 64.687C151.135 65.1017 150.994 65.6963 150.994 66.4707ZM163.93 62.9731V70H162.756L162.553 69.0542H162.47C162.322 69.2954 162.134 69.4964 161.905 69.6572C161.677 69.8138 161.423 69.9302 161.144 70.0063C160.864 70.0868 160.57 70.127 160.261 70.127C159.732 70.127 159.279 70.0381 158.903 69.8604C158.53 69.6784 158.245 69.3991 158.046 69.0225C157.847 68.6458 157.748 68.1592 157.748 67.5625V62.9731H159.246V67.2832C159.246 67.8291 159.356 68.2375 159.576 68.5083C159.8 68.7791 160.147 68.9146 160.617 68.9146C161.069 68.9146 161.429 68.8215 161.696 68.6353C161.962 68.4491 162.151 68.174 162.261 67.8101C162.375 67.4461 162.432 66.9997 162.432 66.4707V62.9731H163.93ZM169.732 62.8398C170.523 62.8398 171.139 63.0451 171.579 63.4556C172.023 63.8618 172.246 64.5156 172.246 65.417V70H170.754V65.6963C170.754 65.1504 170.642 64.742 170.417 64.4712C170.193 64.1961 169.846 64.0586 169.376 64.0586C168.695 64.0586 168.221 64.2681 167.955 64.687C167.692 65.106 167.561 65.7132 167.561 66.5088V70H166.069V62.9731H167.231L167.44 63.9253H167.523C167.675 63.6799 167.864 63.4788 168.088 63.3223C168.316 63.1615 168.57 63.0409 168.85 62.9604C169.133 62.88 169.427 62.8398 169.732 62.8398ZM176.949 68.9209C177.144 68.9209 177.336 68.904 177.527 68.8701C177.717 68.832 177.891 68.7876 178.047 68.7368V69.8667C177.882 69.9386 177.669 70 177.406 70.0508C177.144 70.1016 176.871 70.127 176.587 70.127C176.19 70.127 175.832 70.0614 175.515 69.9302C175.197 69.7948 174.945 69.5641 174.759 69.2383C174.573 68.9124 174.48 68.4618 174.48 67.8862V64.1094H173.521V63.4429L174.55 62.916L175.039 61.4116H175.978V62.9731H177.99V64.1094H175.978V67.8672C175.978 68.2227 176.067 68.4871 176.245 68.6606C176.422 68.8341 176.657 68.9209 176.949 68.9209ZM182.637 69.2129C182.637 68.8659 182.726 68.6226 182.903 68.4829C183.085 68.339 183.305 68.2671 183.563 68.2671C183.822 68.2671 184.042 68.339 184.224 68.4829C184.41 68.6226 184.503 68.8659 184.503 69.2129C184.503 69.5514 184.41 69.7969 184.224 69.9492C184.042 70.0973 183.822 70.1714 183.563 70.1714C183.305 70.1714 183.085 70.0973 182.903 69.9492C182.726 69.7969 182.637 69.5514 182.637 69.2129ZM186.204 69.2129C186.204 68.8659 186.293 68.6226 186.471 68.4829C186.653 68.339 186.873 68.2671 187.131 68.2671C187.389 68.2671 187.609 68.339 187.791 68.4829C187.977 68.6226 188.07 68.8659 188.07 69.2129C188.07 69.5514 187.977 69.7969 187.791 69.9492C187.609 70.0973 187.389 70.1714 187.131 70.1714C186.873 70.1714 186.653 70.0973 186.471 69.9492C186.293 69.7969 186.204 69.5514 186.204 69.2129ZM189.771 69.2129C189.771 68.8659 189.86 68.6226 190.038 68.4829C190.22 68.339 190.44 68.2671 190.698 68.2671C190.956 68.2671 191.176 68.339 191.358 68.4829C191.545 68.6226 191.638 68.8659 191.638 69.2129C191.638 69.5514 191.545 69.7969 191.358 69.9492C191.176 70.0973 190.956 70.1714 190.698 70.1714C190.44 70.1714 190.22 70.0973 190.038 69.9492C189.86 69.7969 189.771 69.5514 189.771 69.2129ZM197.458 70H195.96V64.0269C195.96 63.828 195.963 63.6291 195.967 63.4302C195.971 63.2313 195.975 63.0366 195.979 62.8462C195.988 62.6558 195.999 62.4738 196.011 62.3003C195.922 62.3976 195.812 62.5034 195.681 62.6177C195.554 62.7319 195.419 62.8504 195.275 62.9731L194.208 63.8237L193.459 62.8779L196.214 60.7197H197.458V70ZM206.796 70H200.512V68.8765L202.917 66.439C203.383 65.965 203.766 65.5566 204.066 65.2139C204.367 64.8669 204.589 64.5389 204.733 64.23C204.881 63.9211 204.955 63.5846 204.955 63.2207C204.955 62.7721 204.826 62.4336 204.568 62.2051C204.31 61.9723 203.969 61.856 203.546 61.856C203.144 61.856 202.771 61.9364 202.429 62.0972C202.09 62.2537 201.739 62.478 201.375 62.77L200.556 61.7861C200.814 61.5661 201.089 61.3651 201.381 61.1831C201.678 61.0011 202.008 60.8573 202.372 60.7515C202.736 60.6414 203.15 60.5864 203.616 60.5864C204.204 60.5864 204.712 60.6922 205.139 60.9038C205.567 61.1112 205.895 61.401 206.123 61.7734C206.356 62.1458 206.472 62.5796 206.472 63.0747C206.472 63.5741 206.373 64.0353 206.174 64.4585C205.975 64.8817 205.691 65.3006 205.323 65.7153C204.955 66.1258 204.517 66.5723 204.009 67.0547L202.403 68.6226V68.6924H206.796V70ZM213.88 62.8398C213.88 63.2588 213.795 63.6227 213.626 63.9316C213.457 64.2406 213.224 64.4945 212.928 64.6934C212.636 64.888 212.297 65.0277 211.912 65.1123V65.1567C212.653 65.2498 213.211 65.4826 213.588 65.855C213.969 66.2274 214.159 66.7204 214.159 67.334C214.159 67.8714 214.03 68.3517 213.772 68.7749C213.514 69.1938 213.118 69.5239 212.585 69.7651C212.052 70.0063 211.366 70.127 210.528 70.127C210.025 70.127 209.557 70.0868 209.125 70.0063C208.698 69.9259 208.292 69.7969 207.907 69.6191V68.2925C208.3 68.4871 208.719 68.6374 209.164 68.7432C209.608 68.849 210.029 68.9019 210.427 68.9019C211.201 68.9019 211.753 68.758 212.083 68.4702C212.414 68.1782 212.579 67.7762 212.579 67.2642C212.579 66.9341 212.492 66.6632 212.318 66.4517C212.149 66.2401 211.885 66.0814 211.525 65.9756C211.169 65.8698 210.71 65.8169 210.147 65.8169H209.329V64.6172H210.154C210.691 64.6172 211.123 64.5537 211.449 64.4268C211.775 64.2956 212.009 64.1157 212.153 63.8872C212.301 63.6587 212.375 63.3921 212.375 63.0874C212.375 62.6896 212.246 62.3807 211.988 62.1606C211.73 61.9364 211.347 61.8242 210.839 61.8242C210.526 61.8242 210.241 61.8602 209.982 61.9321C209.729 62.0041 209.494 62.0951 209.278 62.2051C209.062 62.3151 208.857 62.4336 208.662 62.5605L207.945 61.5259C208.296 61.2635 208.715 61.0413 209.202 60.8594C209.688 60.6774 210.255 60.5864 210.903 60.5864C211.855 60.5864 212.589 60.7917 213.105 61.2021C213.622 61.6084 213.88 62.1543 213.88 62.8398ZM222.011 67.9624H220.754V70H219.282V67.9624H215.061V66.8325L219.301 60.6943H220.754V66.7246H222.011V67.9624ZM219.282 66.7246V64.4204C219.282 64.23 219.284 64.0374 219.288 63.8428C219.297 63.6439 219.305 63.4535 219.313 63.2715C219.322 63.0895 219.33 62.9224 219.339 62.77C219.347 62.6134 219.354 62.4844 219.358 62.3828H219.307C219.227 62.5521 219.138 62.7256 219.041 62.9033C218.943 63.0768 218.84 63.2461 218.729 63.4111L216.444 66.7246H219.282Z" fill="black" fill-opacity="0.87"/>
<g clip-path="url(#clip1_4011_3325)">
<path d="M48.8848 117.875L47.6348 116.646C47.482 116.493 47.3084 116.417 47.1139 116.417C46.9195 116.417 46.7459 116.493 46.5931 116.646C46.4403 116.799 46.3639 116.979 46.3639 117.187C46.3639 117.382 46.4403 117.556 46.5931 117.708L48.3639 119.479C48.5167 119.632 48.6903 119.708 48.8848 119.708C49.0792 119.708 49.2528 119.632 49.4056 119.479L53.3014 115.583C53.4542 115.431 53.5306 115.257 53.5306 115.062C53.5306 114.854 53.4542 114.674 53.3014 114.521C53.1487 114.368 52.975 114.292 52.7806 114.292C52.5862 114.292 52.4125 114.368 52.2598 114.521L48.8848 117.875ZM44.4473 124C44.0306 124 43.6764 123.854 43.3848 123.562C43.0931 123.271 42.9473 122.917 42.9473 122.5V111.5C42.9473 111.083 43.0931 110.729 43.3848 110.437C43.6764 110.146 44.0306 110 44.4473 110H55.4473C55.8639 110 56.2181 110.146 56.5098 110.437C56.8014 110.729 56.9473 111.083 56.9473 111.5V122.5C56.9473 122.917 56.8014 123.271 56.5098 123.562C56.2181 123.854 55.8639 124 55.4473 124H44.4473Z" fill="#3B3331"/>
</g>
<path d="M71.8638 112.72C73.0614 112.72 73.9352 112.965 74.4854 113.456C75.0355 113.947 75.3105 114.635 75.3105 115.519C75.3105 115.921 75.2471 116.304 75.1201 116.668C74.9974 117.028 74.7943 117.347 74.5107 117.626C74.2272 117.902 73.8527 118.119 73.3872 118.28C72.9259 118.441 72.3568 118.521 71.6797 118.521H70.6895V122H69.166V112.72H71.8638ZM71.7622 113.983H70.6895V117.252H71.521C71.9992 117.252 72.4054 117.197 72.7397 117.087C73.0741 116.973 73.328 116.793 73.5015 116.547C73.675 116.302 73.7617 115.978 73.7617 115.576C73.7617 115.039 73.5988 114.639 73.2729 114.376C72.9513 114.114 72.4478 113.983 71.7622 113.983ZM80.5728 114.84C80.6912 114.84 80.8203 114.846 80.96 114.859C81.0996 114.872 81.2202 114.889 81.3218 114.91L81.1821 116.306C81.0933 116.281 80.9832 116.262 80.8521 116.249C80.7251 116.236 80.6108 116.23 80.5093 116.23C80.2427 116.23 79.9888 116.274 79.7476 116.363C79.5063 116.448 79.2926 116.579 79.1064 116.757C78.9202 116.93 78.7743 117.148 78.6685 117.411C78.5627 117.673 78.5098 117.978 78.5098 118.325V122H77.0117V114.973H78.1797L78.3828 116.211H78.4526C78.5923 115.961 78.7658 115.733 78.9731 115.525C79.1805 115.318 79.4175 115.153 79.6841 115.03C79.9549 114.903 80.2511 114.84 80.5728 114.84ZM88.8438 118.471C88.8438 119.055 88.7676 119.573 88.6152 120.026C88.4629 120.479 88.2407 120.862 87.9487 121.175C87.6567 121.484 87.3055 121.721 86.895 121.886C86.4845 122.047 86.0212 122.127 85.5049 122.127C85.0225 122.127 84.5802 122.047 84.1782 121.886C83.7762 121.721 83.4271 121.484 83.1309 121.175C82.8389 120.862 82.6125 120.479 82.4517 120.026C82.2909 119.573 82.2104 119.055 82.2104 118.471C82.2104 117.696 82.3438 117.04 82.6104 116.503C82.8812 115.961 83.2663 115.549 83.7656 115.265C84.265 114.982 84.8595 114.84 85.5493 114.84C86.1968 114.84 86.7681 114.982 87.2632 115.265C87.7583 115.549 88.1455 115.961 88.4248 116.503C88.7041 117.045 88.8438 117.701 88.8438 118.471ZM83.7466 118.471C83.7466 118.983 83.8079 119.421 83.9307 119.785C84.0576 120.149 84.2523 120.428 84.5146 120.623C84.777 120.813 85.1156 120.908 85.5303 120.908C85.945 120.908 86.2835 120.813 86.5459 120.623C86.8083 120.428 87.0008 120.149 87.1235 119.785C87.2463 119.421 87.3076 118.983 87.3076 118.471C87.3076 117.959 87.2463 117.525 87.1235 117.169C87.0008 116.81 86.8083 116.537 86.5459 116.351C86.2835 116.16 85.9429 116.065 85.5239 116.065C84.9061 116.065 84.4554 116.272 84.1719 116.687C83.8883 117.102 83.7466 117.696 83.7466 118.471ZM94.0679 116.109H92.3604V122H90.8687V116.109H89.7197V115.392L90.8687 114.954V114.465C90.8687 113.869 90.9618 113.395 91.1479 113.043C91.3384 112.692 91.6092 112.44 91.9604 112.288C92.3159 112.132 92.7391 112.053 93.23 112.053C93.5516 112.053 93.8457 112.081 94.1123 112.136C94.3789 112.187 94.6032 112.246 94.7852 112.313L94.3979 113.443C94.2541 113.397 94.0933 113.354 93.9155 113.316C93.7378 113.274 93.5474 113.253 93.3442 113.253C93.0057 113.253 92.756 113.359 92.5952 113.57C92.4386 113.782 92.3604 114.091 92.3604 114.497V114.973H94.0679V116.109ZM96.7529 114.973V122H95.2612V114.973H96.7529ZM96.0166 112.282C96.2451 112.282 96.4419 112.343 96.6069 112.466C96.7762 112.589 96.8608 112.8 96.8608 113.101C96.8608 113.397 96.7762 113.608 96.6069 113.735C96.4419 113.858 96.2451 113.919 96.0166 113.919C95.7796 113.919 95.5786 113.858 95.4136 113.735C95.2528 113.608 95.1724 113.397 95.1724 113.101C95.1724 112.8 95.2528 112.589 95.4136 112.466C95.5786 112.343 95.7796 112.282 96.0166 112.282ZM100.384 122H98.8857V112.123H100.384V122ZM105.316 114.84C105.942 114.84 106.48 114.969 106.928 115.227C107.377 115.485 107.722 115.851 107.963 116.325C108.204 116.799 108.325 117.366 108.325 118.026V118.826H103.634C103.651 119.507 103.833 120.032 104.18 120.4C104.531 120.769 105.022 120.953 105.652 120.953C106.101 120.953 106.503 120.91 106.858 120.826C107.218 120.737 107.588 120.608 107.969 120.438V121.651C107.618 121.816 107.26 121.937 106.896 122.013C106.533 122.089 106.097 122.127 105.589 122.127C104.899 122.127 104.292 121.994 103.767 121.727C103.247 121.456 102.838 121.054 102.542 120.521C102.25 119.988 102.104 119.326 102.104 118.534C102.104 117.747 102.237 117.078 102.504 116.528C102.771 115.978 103.145 115.559 103.627 115.271C104.11 114.984 104.673 114.84 105.316 114.84ZM105.316 115.963C104.846 115.963 104.465 116.116 104.173 116.42C103.886 116.725 103.716 117.172 103.666 117.76H106.865C106.861 117.409 106.801 117.097 106.687 116.827C106.577 116.556 106.408 116.344 106.179 116.192C105.955 116.04 105.667 115.963 105.316 115.963ZM114.875 114.973V122H113.384V114.973H114.875ZM114.139 112.282C114.368 112.282 114.564 112.343 114.729 112.466C114.899 112.589 114.983 112.8 114.983 113.101C114.983 113.397 114.899 113.608 114.729 113.735C114.564 113.858 114.368 113.919 114.139 113.919C113.902 113.919 113.701 113.858 113.536 113.735C113.375 113.608 113.295 113.397 113.295 113.101C113.295 112.8 113.375 112.589 113.536 112.466C113.701 112.343 113.902 112.282 114.139 112.282ZM120.677 114.84C121.469 114.84 122.084 115.045 122.524 115.456C122.969 115.862 123.191 116.516 123.191 117.417V122H121.699V117.696C121.699 117.15 121.587 116.742 121.363 116.471C121.139 116.196 120.792 116.059 120.322 116.059C119.64 116.059 119.167 116.268 118.9 116.687C118.638 117.106 118.506 117.713 118.506 118.509V122H117.015V114.973H118.176L118.386 115.925H118.468C118.621 115.68 118.809 115.479 119.033 115.322C119.262 115.161 119.516 115.041 119.795 114.96C120.078 114.88 120.373 114.84 120.677 114.84ZM128.79 116.109H127.082V122H125.59V116.109H124.441V115.392L125.59 114.954V114.465C125.59 113.869 125.683 113.395 125.87 113.043C126.06 112.692 126.331 112.44 126.682 112.288C127.038 112.132 127.461 112.053 127.952 112.053C128.273 112.053 128.567 112.081 128.834 112.136C129.101 112.187 129.325 112.246 129.507 112.313L129.12 113.443C128.976 113.397 128.815 113.354 128.637 113.316C128.459 113.274 128.269 113.253 128.066 113.253C127.727 113.253 127.478 113.359 127.317 113.57C127.16 113.782 127.082 114.091 127.082 114.497V114.973H128.79V116.109ZM136.21 118.471C136.21 119.055 136.134 119.573 135.981 120.026C135.829 120.479 135.607 120.862 135.315 121.175C135.023 121.484 134.672 121.721 134.261 121.886C133.851 122.047 133.387 122.127 132.871 122.127C132.389 122.127 131.946 122.047 131.544 121.886C131.142 121.721 130.793 121.484 130.497 121.175C130.205 120.862 129.979 120.479 129.818 120.026C129.657 119.573 129.577 119.055 129.577 118.471C129.577 117.696 129.71 117.04 129.977 116.503C130.247 115.961 130.632 115.549 131.132 115.265C131.631 114.982 132.226 114.84 132.916 114.84C133.563 114.84 134.134 114.982 134.629 115.265C135.125 115.549 135.512 115.961 135.791 116.503C136.07 117.045 136.21 117.701 136.21 118.471ZM131.113 118.471C131.113 118.983 131.174 119.421 131.297 119.785C131.424 120.149 131.618 120.428 131.881 120.623C132.143 120.813 132.482 120.908 132.896 120.908C133.311 120.908 133.65 120.813 133.912 120.623C134.174 120.428 134.367 120.149 134.49 119.785C134.612 119.421 134.674 118.983 134.674 118.471C134.674 117.959 134.612 117.525 134.49 117.169C134.367 116.81 134.174 116.537 133.912 116.351C133.65 116.16 133.309 116.065 132.89 116.065C132.272 116.065 131.822 116.272 131.538 116.687C131.255 117.102 131.113 117.696 131.113 118.471ZM141.485 114.84C141.603 114.84 141.732 114.846 141.872 114.859C142.012 114.872 142.132 114.889 142.234 114.91L142.094 116.306C142.005 116.281 141.895 116.262 141.764 116.249C141.637 116.236 141.523 116.23 141.421 116.23C141.155 116.23 140.901 116.274 140.66 116.363C140.418 116.448 140.205 116.579 140.019 116.757C139.832 116.93 139.686 117.148 139.581 117.411C139.475 117.673 139.422 117.978 139.422 118.325V122H137.924V114.973H139.092L139.295 116.211H139.365C139.504 115.961 139.678 115.733 139.885 115.525C140.093 115.318 140.33 115.153 140.596 115.03C140.867 114.903 141.163 114.84 141.485 114.84ZM151.476 114.84C152.263 114.84 152.856 115.043 153.253 115.449C153.655 115.855 153.856 116.507 153.856 117.404V122H152.365V117.671C152.365 117.138 152.261 116.736 152.054 116.465C151.846 116.194 151.531 116.059 151.108 116.059C150.515 116.059 150.088 116.249 149.826 116.63C149.568 117.007 149.438 117.555 149.438 118.274V122H147.947V117.671C147.947 117.315 147.9 117.019 147.807 116.782C147.718 116.541 147.581 116.361 147.395 116.243C147.208 116.12 146.973 116.059 146.69 116.059C146.279 116.059 145.951 116.152 145.706 116.338C145.465 116.524 145.291 116.799 145.186 117.163C145.08 117.523 145.027 117.965 145.027 118.49V122H143.535V114.973H144.697L144.906 115.919H144.989C145.133 115.674 145.31 115.472 145.522 115.316C145.738 115.155 145.977 115.037 146.239 114.96C146.502 114.88 146.775 114.84 147.058 114.84C147.583 114.84 148.025 114.933 148.385 115.119C148.744 115.301 149.013 115.58 149.191 115.957H149.305C149.525 115.576 149.832 115.295 150.226 115.113C150.619 114.931 151.036 114.84 151.476 114.84ZM158.693 114.84C159.582 114.84 160.253 115.037 160.706 115.43C161.163 115.824 161.391 116.437 161.391 117.271V122H160.331L160.045 121.003H159.995C159.796 121.257 159.59 121.467 159.379 121.632C159.167 121.797 158.922 121.92 158.643 122C158.368 122.085 158.031 122.127 157.633 122.127C157.214 122.127 156.84 122.051 156.51 121.898C156.18 121.742 155.919 121.505 155.729 121.188C155.539 120.87 155.443 120.468 155.443 119.981C155.443 119.258 155.712 118.714 156.25 118.35C156.791 117.986 157.608 117.785 158.7 117.747L159.918 117.703V117.334C159.918 116.848 159.804 116.501 159.576 116.293C159.351 116.086 159.034 115.982 158.624 115.982C158.272 115.982 157.932 116.033 157.602 116.135C157.271 116.236 156.95 116.361 156.637 116.509L156.154 115.456C156.497 115.274 156.886 115.125 157.322 115.011C157.762 114.897 158.219 114.84 158.693 114.84ZM159.912 118.642L159.004 118.674C158.26 118.699 157.737 118.826 157.437 119.055C157.136 119.283 156.986 119.596 156.986 119.994C156.986 120.341 157.09 120.595 157.297 120.756C157.504 120.912 157.777 120.991 158.116 120.991C158.632 120.991 159.059 120.845 159.398 120.553C159.741 120.257 159.912 119.823 159.912 119.251V118.642ZM166.095 120.921C166.289 120.921 166.482 120.904 166.672 120.87C166.863 120.832 167.036 120.788 167.193 120.737V121.867C167.028 121.939 166.814 122 166.552 122.051C166.289 122.102 166.016 122.127 165.733 122.127C165.335 122.127 164.978 122.061 164.66 121.93C164.343 121.795 164.091 121.564 163.905 121.238C163.719 120.912 163.625 120.462 163.625 119.886V116.109H162.667V115.443L163.695 114.916L164.184 113.412H165.124V114.973H167.136V116.109H165.124V119.867C165.124 120.223 165.212 120.487 165.39 120.661C165.568 120.834 165.803 120.921 166.095 120.921ZM170.113 114.973V122H168.621V114.973H170.113ZM169.376 112.282C169.605 112.282 169.802 112.343 169.967 112.466C170.136 112.589 170.221 112.8 170.221 113.101C170.221 113.397 170.136 113.608 169.967 113.735C169.802 113.858 169.605 113.919 169.376 113.919C169.139 113.919 168.938 113.858 168.773 113.735C168.613 113.608 168.532 113.397 168.532 113.101C168.532 112.8 168.613 112.589 168.773 112.466C168.938 112.343 169.139 112.282 169.376 112.282ZM178.473 118.471C178.473 119.055 178.396 119.573 178.244 120.026C178.092 120.479 177.87 120.862 177.578 121.175C177.286 121.484 176.934 121.721 176.524 121.886C176.113 122.047 175.65 122.127 175.134 122.127C174.651 122.127 174.209 122.047 173.807 121.886C173.405 121.721 173.056 121.484 172.76 121.175C172.468 120.862 172.241 120.479 172.081 120.026C171.92 119.573 171.839 119.055 171.839 118.471C171.839 117.696 171.973 117.04 172.239 116.503C172.51 115.961 172.895 115.549 173.395 115.265C173.894 114.982 174.488 114.84 175.178 114.84C175.826 114.84 176.397 114.982 176.892 115.265C177.387 115.549 177.774 115.961 178.054 116.503C178.333 117.045 178.473 117.701 178.473 118.471ZM173.375 118.471C173.375 118.983 173.437 119.421 173.56 119.785C173.687 120.149 173.881 120.428 174.144 120.623C174.406 120.813 174.744 120.908 175.159 120.908C175.574 120.908 175.912 120.813 176.175 120.623C176.437 120.428 176.63 120.149 176.752 119.785C176.875 119.421 176.937 118.983 176.937 118.471C176.937 117.959 176.875 117.525 176.752 117.169C176.63 116.81 176.437 116.537 176.175 116.351C175.912 116.16 175.572 116.065 175.153 116.065C174.535 116.065 174.084 116.272 173.801 116.687C173.517 117.102 173.375 117.696 173.375 118.471ZM183.849 114.84C184.64 114.84 185.256 115.045 185.696 115.456C186.141 115.862 186.363 116.516 186.363 117.417V122H184.871V117.696C184.871 117.15 184.759 116.742 184.535 116.471C184.31 116.196 183.963 116.059 183.494 116.059C182.812 116.059 182.338 116.268 182.072 116.687C181.809 117.106 181.678 117.713 181.678 118.509V122H180.187V114.973H181.348L181.558 115.925H181.64C181.792 115.68 181.981 115.479 182.205 115.322C182.434 115.161 182.688 115.041 182.967 114.96C183.25 114.88 183.544 114.84 183.849 114.84Z" fill="black" fill-opacity="0.87"/>
<path d="M39.9473 91H312.052" stroke="black" stroke-opacity="0.12"/>
<defs>
<filter id="filter0_d_4011_3325" x="16" y="0" width="319.003" height="178" filterUnits="userSpaceOnUse" color-interpolation-filters="sRGB">
<feFlood flood-opacity="0" result="BackgroundImageFix"/>
<feColorMatrix in="SourceAlpha" type="matrix" values="0 0 0 0 0 0 0 0 0 0 0 0 0 0 0 0 0 0 127 0" result="hardAlpha"/>
<feOffset dy="2"/>
<feGaussianBlur stdDeviation="4"/>
<feComposite in2="hardAlpha" operator="out"/>
<feColorMatrix type="matrix" values="0 0 0 0 0 0 0 0 0 0 0 0 0 0 0 0 0 0 0.12 0"/>
<feBlend mode="normal" in2="BackgroundImageFix" result="effect1_dropShadow_4011_3325"/>
<feBlend mode="normal" in="SourceGraphic" in2="effect1_dropShadow_4011_3325" result="shape"/>
</filter>
<linearGradient id="paint0_linear_4011_3325" x1="176" y1="150" x2="176.142" y2="99.0004" gradientUnits="userSpaceOnUse">
<stop offset="0.25" stop-color="#F9F9F9"/>
<stop offset="1" stop-color="#F9F9F9" stop-opacity="0"/>
</linearGradient>
<clipPath id="clip0_4011_3325">
<rect width="20" height="20" fill="white" transform="translate(39.9473 55)"/>
</clipPath>
<clipPath id="clip1_4011_3325">
<rect width="20" height="20" fill="white" transform="translate(39.9473 107)"/>
</clipPath>
</defs>
</svg>
