<svg width="100%" height="auto" viewBox="0 0 352 177" fill="none" xmlns="http://www.w3.org/2000/svg">
<g clip-path="url(#clip0_4034_3804)">
<ellipse opacity="0.5" cx="175.5" cy="98" rx="379.5" ry="165" fill="url(#paint0_radial_4034_3804)"/>
<rect x="24" y="24" width="303.003" height="162" rx="4" fill="#2C3137"/>
<path d="M24 28C24 25.7909 25.7909 24 28 24H323C325.209 24 327 25.7909 327 28V56H24V28Z" fill="#D9181F"/>
<path d="M126.815 45L123.736 34.0909H125.862L127.827 42.1076H127.928L130.027 34.0909H131.961L134.065 42.1129H134.161L136.126 34.0909H138.252L135.173 45H133.223L131.039 37.3455H130.954L128.765 45H126.815ZM139.622 45V34.0909H146.717V35.7475H141.598V38.7092H146.349V40.3658H141.598V43.3434H146.76V45H139.622ZM148.733 45V34.0909H150.709V43.3434H155.514V45H148.733ZM157.229 45V34.0909H159.205V43.3434H164.01V45H157.229ZM171.654 37.0898C171.604 36.6246 171.395 36.2624 171.025 36.0032C170.66 35.744 170.184 35.6143 169.598 35.6143C169.186 35.6143 168.833 35.6765 168.538 35.8008C168.243 35.9251 168.018 36.0937 167.861 36.3068C167.705 36.5199 167.625 36.7631 167.622 37.0366C167.622 37.2638 167.673 37.4609 167.776 37.6278C167.883 37.7947 168.026 37.9368 168.208 38.054C168.389 38.1676 168.589 38.2635 168.81 38.3416C169.03 38.4197 169.252 38.4854 169.475 38.5387L170.498 38.7944C170.91 38.8903 171.306 39.0199 171.686 39.1832C172.069 39.3466 172.412 39.5526 172.714 39.8011C173.019 40.0497 173.261 40.3498 173.438 40.7013C173.616 41.0529 173.705 41.4648 173.705 41.9371C173.705 42.5763 173.541 43.1392 173.215 43.6257C172.888 44.1087 172.416 44.4869 171.798 44.7603C171.183 45.0302 170.439 45.1651 169.566 45.1651C168.717 45.1651 167.98 45.0337 167.355 44.771C166.734 44.5082 166.247 44.1246 165.896 43.6204C165.548 43.1161 165.36 42.5018 165.331 41.7773H167.275C167.304 42.1573 167.421 42.4734 167.627 42.7255C167.833 42.9776 168.101 43.1658 168.431 43.2901C168.765 43.4144 169.138 43.4766 169.55 43.4766C169.98 43.4766 170.356 43.4126 170.679 43.2848C171.006 43.1534 171.262 42.9723 171.446 42.7415C171.631 42.5071 171.725 42.2337 171.729 41.9212C171.725 41.6371 171.642 41.4027 171.478 41.218C171.315 41.0298 171.086 40.8736 170.791 40.7493C170.5 40.6214 170.159 40.5078 169.768 40.4084L168.527 40.0888C167.629 39.858 166.919 39.5082 166.397 39.0394C165.878 38.5671 165.619 37.9403 165.619 37.1591C165.619 36.5163 165.793 35.9535 166.141 35.4705C166.492 34.9876 166.97 34.6129 167.574 34.3466C168.177 34.0767 168.861 33.9418 169.625 33.9418C170.399 33.9418 171.077 34.0767 171.659 34.3466C172.245 34.6129 172.705 34.984 173.039 35.4599C173.373 35.9322 173.545 36.4755 173.556 37.0898H171.654ZM179.187 45V34.0909H186.176V35.7475H181.163V38.7092H185.697V40.3658H181.163V45H179.187ZM188.015 45H185.906L189.746 34.0909H192.186L196.032 45H193.922L191.009 36.3281H190.923L188.015 45ZM188.084 40.7227H193.837V42.31H188.084V40.7227ZM197.469 45V34.0909H201.559C202.397 34.0909 203.101 34.2365 203.669 34.5277C204.241 34.8189 204.672 35.2273 204.963 35.7528C205.258 36.2749 205.405 36.8839 205.405 37.5799C205.405 38.2795 205.256 38.8867 204.958 39.4016C204.663 39.913 204.228 40.3089 203.653 40.5895C203.078 40.8665 202.371 41.005 201.533 41.005H198.619V39.3643H201.266C201.757 39.3643 202.158 39.2969 202.47 39.1619C202.783 39.0234 203.014 38.8228 203.163 38.56C203.315 38.2937 203.392 37.967 203.392 37.5799C203.392 37.1928 203.315 36.8626 203.163 36.5891C203.01 36.3121 202.777 36.1026 202.465 35.9606C202.152 35.815 201.749 35.7422 201.256 35.7422H199.445V45H197.469ZM203.104 40.0568L205.805 45H203.6L200.947 40.0568H203.104ZM214.533 37.5746C214.444 37.2869 214.321 37.0295 214.165 36.8022C214.012 36.5714 213.828 36.3743 213.611 36.2109C213.398 36.0476 213.153 35.9251 212.876 35.8434C212.599 35.7582 212.297 35.7156 211.97 35.7156C211.385 35.7156 210.863 35.8629 210.404 36.1577C209.946 36.4524 209.586 36.8857 209.323 37.4574C209.064 38.0256 208.934 38.718 208.934 39.5348C208.934 40.3587 209.064 41.0565 209.323 41.6282C209.582 42.1999 209.943 42.6349 210.404 42.9332C210.866 43.228 211.402 43.3754 212.013 43.3754C212.567 43.3754 213.046 43.2688 213.451 43.0558C213.86 42.8427 214.174 42.5408 214.394 42.1502C214.614 41.756 214.724 41.2944 214.724 40.7653L215.172 40.8345H212.21V39.2898H216.637V40.6001C216.637 41.5341 216.438 42.342 216.04 43.0238C215.642 43.7056 215.095 44.2312 214.399 44.6005C213.703 44.9663 212.904 45.1491 212.002 45.1491C210.997 45.1491 210.115 44.9237 209.355 44.4727C208.599 44.0181 208.007 43.3736 207.581 42.5391C207.159 41.701 206.947 40.7067 206.947 39.5561C206.947 38.6754 207.072 37.8888 207.32 37.1964C207.572 36.5039 207.924 35.9162 208.375 35.4332C208.826 34.9467 209.355 34.5774 209.962 34.3253C210.57 34.0696 211.23 33.9418 211.944 33.9418C212.548 33.9418 213.11 34.0305 213.632 34.2081C214.154 34.3821 214.618 34.6307 215.023 34.9538C215.431 35.277 215.767 35.6605 216.029 36.1044C216.292 36.5483 216.464 37.0384 216.546 37.5746H214.533ZM228.295 39.5455C228.295 40.7209 228.075 41.7276 227.635 42.5657C227.198 43.4002 226.602 44.0394 225.845 44.4833C225.092 44.9272 224.238 45.1491 223.283 45.1491C222.328 45.1491 221.472 44.9272 220.716 44.4833C219.963 44.0359 219.366 43.3949 218.926 42.5604C218.489 41.7223 218.271 40.7173 218.271 39.5455C218.271 38.37 218.489 37.3651 218.926 36.5305C219.366 35.6925 219.963 35.0515 220.716 34.6076C221.472 34.1637 222.328 33.9418 223.283 33.9418C224.238 33.9418 225.092 34.1637 225.845 34.6076C226.602 35.0515 227.198 35.6925 227.635 36.5305C228.075 37.3651 228.295 38.37 228.295 39.5455ZM226.309 39.5455C226.309 38.718 226.179 38.0202 225.92 37.4521C225.664 36.8803 225.309 36.4489 224.854 36.1577C224.4 35.8629 223.876 35.7156 223.283 35.7156C222.69 35.7156 222.166 35.8629 221.712 36.1577C221.257 36.4489 220.9 36.8803 220.641 37.4521C220.385 38.0202 220.257 38.718 220.257 39.5455C220.257 40.3729 220.385 41.0724 220.641 41.6442C220.9 42.2124 221.257 42.6438 221.712 42.9386C222.166 43.2298 222.69 43.3754 223.283 43.3754C223.876 43.3754 224.4 43.2298 224.854 42.9386C225.309 42.6438 225.664 42.2124 225.92 41.6442C226.179 41.0724 226.309 40.3729 226.309 39.5455Z" fill="white"/>
<g clip-path="url(#clip1_4034_3804)">
<path d="M48.8848 82.875L47.6348 81.6458C47.482 81.4931 47.3084 81.4167 47.1139 81.4167C46.9195 81.4167 46.7459 81.4931 46.5931 81.6458C46.4403 81.7986 46.3639 81.9792 46.3639 82.1875C46.3639 82.3819 46.4403 82.5556 46.5931 82.7083L48.3639 84.4792C48.5167 84.6319 48.6903 84.7083 48.8848 84.7083C49.0792 84.7083 49.2528 84.6319 49.4056 84.4792L53.3014 80.5833C53.4542 80.4306 53.5306 80.2569 53.5306 80.0625C53.5306 79.8542 53.4542 79.6736 53.3014 79.5208C53.1487 79.3681 52.975 79.2917 52.7806 79.2917C52.5862 79.2917 52.4125 79.3681 52.2598 79.5208L48.8848 82.875ZM44.4473 89C44.0306 89 43.6764 88.8542 43.3848 88.5625C43.0931 88.2708 42.9473 87.9167 42.9473 87.5V76.5C42.9473 76.0833 43.0931 75.7292 43.3848 75.4375C43.6764 75.1458 44.0306 75 44.4473 75H55.4473C55.8639 75 56.2181 75.1458 56.5098 75.4375C56.8014 75.7292 56.9473 76.0833 56.9473 76.5V87.5C56.9473 87.9167 56.8014 88.2708 56.5098 88.5625C56.2181 88.8542 55.8639 89 55.4473 89H44.4473Z" fill="white"/>
</g>
<path d="M78.0467 79.5H76.7257C76.6476 79.12 76.5108 78.7862 76.3155 78.4986C76.1238 78.2109 75.8894 77.9695 75.6124 77.7741C75.339 77.5753 75.0353 77.4261 74.7015 77.3267C74.3677 77.2273 74.0197 77.1776 73.6575 77.1776C72.997 77.1776 72.3986 77.3445 71.8624 77.6783C71.3297 78.0121 70.9054 78.5039 70.5893 79.1538C70.2768 79.8036 70.1206 80.6009 70.1206 81.5455C70.1206 82.4901 70.2768 83.2873 70.5893 83.9371C70.9054 84.587 71.3297 85.0788 71.8624 85.4126C72.3986 85.7464 72.997 85.9134 73.6575 85.9134C74.0197 85.9134 74.3677 85.8636 74.7015 85.7642C75.0353 85.6648 75.339 85.5174 75.6124 85.3221C75.8894 85.1232 76.1238 84.88 76.3155 84.5923C76.5108 84.3011 76.6476 83.9673 76.7257 83.5909H78.0467C77.9473 84.1484 77.7662 84.6474 77.5034 85.0877C77.2406 85.5281 76.9139 85.9027 76.5233 86.2116C76.1326 86.517 75.6941 86.7496 75.2076 86.9094C74.7246 87.0692 74.2079 87.1491 73.6575 87.1491C72.7271 87.1491 71.8997 86.9219 71.1752 86.4673C70.4508 86.0128 69.8809 85.3665 69.4654 84.5284C69.0499 83.6903 68.8422 82.696 68.8422 81.5455C68.8422 80.3949 69.0499 79.4006 69.4654 78.5625C69.8809 77.7244 70.4508 77.0781 71.1752 76.6236C71.8997 76.169 72.7271 75.9418 73.6575 75.9418C74.2079 75.9418 74.7246 76.0217 75.2076 76.1815C75.6941 76.3413 76.1326 76.5756 76.5233 76.8846C76.9139 77.19 77.2406 77.5629 77.5034 78.0032C77.7662 78.44 77.9473 78.9389 78.0467 79.5ZM81.268 82.0781V87H80.0109V76.0909H81.268V80.0966H81.3746C81.5663 79.674 81.854 79.3384 82.2375 79.0898C82.6246 78.8377 83.1395 78.7116 83.7822 78.7116C84.3398 78.7116 84.828 78.8235 85.2471 79.0472C85.6661 79.2674 85.991 79.6065 86.2219 80.0646C86.4562 80.5192 86.5734 81.098 86.5734 81.8011V87H85.3163V81.8864C85.3163 81.2365 85.1476 80.734 84.8103 80.3789C84.4765 80.0202 84.0131 79.8409 83.42 79.8409C83.0081 79.8409 82.6388 79.9279 82.3121 80.1019C81.9889 80.2759 81.7332 80.5298 81.545 80.8636C81.3604 81.1974 81.268 81.6023 81.268 82.0781ZM92.3036 87.1705C91.5153 87.1705 90.8352 86.9964 90.2635 86.6484C89.6953 86.2969 89.2567 85.8068 88.9478 85.1783C88.6424 84.5462 88.4897 83.8111 88.4897 82.973C88.4897 82.1349 88.6424 81.3963 88.9478 80.7571C89.2567 80.1143 89.6864 79.6136 90.2369 79.255C90.7908 78.8928 91.4371 78.7116 92.1758 78.7116C92.6019 78.7116 93.0227 78.7827 93.4382 78.9247C93.8537 79.0668 94.2319 79.2976 94.5728 79.6172C94.9137 79.9332 95.1854 80.3523 95.3878 80.8743C95.5902 81.3963 95.6914 82.0391 95.6914 82.8026V83.3352H89.3846V82.2486H94.413C94.413 81.7869 94.3207 81.375 94.136 81.0128C93.9549 80.6506 93.6957 80.3647 93.3583 80.1552C93.0245 79.9457 92.6303 79.8409 92.1758 79.8409C91.6751 79.8409 91.2418 79.9652 90.8761 80.2138C90.5138 80.4588 90.2351 80.7784 90.0398 81.1726C89.8445 81.5668 89.7468 81.9893 89.7468 82.4403V83.1648C89.7468 83.7827 89.8533 84.3065 90.0664 84.7362C90.283 85.1623 90.5831 85.4872 90.9666 85.7109C91.3501 85.9311 91.7958 86.0412 92.3036 86.0412C92.6339 86.0412 92.9322 85.995 93.1985 85.9027C93.4684 85.8068 93.701 85.6648 93.8963 85.4766C94.0916 85.2848 94.2425 85.0469 94.3491 84.7628L95.5636 85.1037C95.4357 85.5156 95.2209 85.8778 94.919 86.1903C94.6172 86.4993 94.2443 86.7408 93.8004 86.9148C93.3565 87.0852 92.8576 87.1705 92.3036 87.1705ZM100.928 87.1705C100.161 87.1705 99.5 86.9893 98.946 86.6271C98.392 86.2649 97.9659 85.766 97.6676 85.1303C97.3693 84.4947 97.2202 83.7685 97.2202 82.9517C97.2202 82.1207 97.3729 81.3874 97.6783 80.7518C97.9872 80.1126 98.4169 79.6136 98.9673 79.255C99.5213 78.8928 100.168 78.7116 100.906 78.7116C101.482 78.7116 102 78.8182 102.462 79.0312C102.923 79.2443 103.301 79.5426 103.596 79.9261C103.891 80.3097 104.074 80.7571 104.145 81.2685H102.888C102.792 80.8956 102.579 80.5653 102.249 80.2777C101.922 79.9865 101.482 79.8409 100.928 79.8409C100.438 79.8409 100.008 79.9687 99.6385 80.2244C99.2727 80.4766 98.9869 80.8335 98.7809 81.2951C98.5785 81.7532 98.4773 82.2912 98.4773 82.9091C98.4773 83.5412 98.5767 84.0916 98.7756 84.5604C98.978 85.0291 99.2621 85.3931 99.6278 85.6523C99.9972 85.9116 100.43 86.0412 100.928 86.0412C101.254 86.0412 101.551 85.9844 101.817 85.8707C102.083 85.7571 102.309 85.5938 102.494 85.3807C102.678 85.1676 102.81 84.9119 102.888 84.6136H104.145C104.074 85.0966 103.898 85.5316 103.618 85.9187C103.341 86.3022 102.973 86.6076 102.515 86.8349C102.06 87.0586 101.531 87.1705 100.928 87.1705ZM107.154 84.017L107.133 82.4616H107.389L110.968 78.8182H112.524L108.71 82.6747H108.603L107.154 84.017ZM105.983 87V76.0909H107.24V87H105.983ZM111.181 87L107.985 82.9517L108.88 82.0781L112.779 87H111.181ZM114.142 87V78.8182H115.399V87H114.142ZM114.781 77.4545C114.536 77.4545 114.325 77.3711 114.147 77.2042C113.973 77.0373 113.886 76.8366 113.886 76.6023C113.886 76.3679 113.973 76.1673 114.147 76.0004C114.325 75.8335 114.536 75.75 114.781 75.75C115.026 75.75 115.236 75.8335 115.41 76.0004C115.587 76.1673 115.676 76.3679 115.676 76.6023C115.676 76.8366 115.587 77.0373 115.41 77.2042C115.236 77.3711 115.026 77.4545 114.781 77.4545ZM118.958 82.0781V87H117.701V78.8182H118.916V80.0966H119.022C119.214 79.6811 119.505 79.3473 119.896 79.0952C120.287 78.8395 120.791 78.7116 121.409 78.7116C121.963 78.7116 122.447 78.8253 122.863 79.0526C123.278 79.2763 123.602 79.6172 123.832 80.0753C124.063 80.5298 124.179 81.1051 124.179 81.8011V87H122.922V81.8864C122.922 81.2436 122.755 80.7429 122.421 80.3842C122.087 80.022 121.629 79.8409 121.047 79.8409C120.645 79.8409 120.287 79.9279 119.971 80.1019C119.658 80.2759 119.411 80.5298 119.23 80.8636C119.049 81.1974 118.958 81.6023 118.958 82.0781ZM129.778 90.2386C129.171 90.2386 128.649 90.1605 128.212 90.0043C127.775 89.8516 127.411 89.6491 127.12 89.397C126.833 89.1484 126.604 88.8821 126.433 88.598L127.435 87.8949C127.548 88.044 127.692 88.2145 127.866 88.4062C128.04 88.6016 128.278 88.7702 128.58 88.9123C128.885 89.0579 129.285 89.1307 129.778 89.1307C130.439 89.1307 130.984 88.9709 131.414 88.6513C131.843 88.3317 132.058 87.831 132.058 87.1491V85.4872H131.952C131.859 85.6364 131.728 85.821 131.557 86.0412C131.391 86.2578 131.149 86.4513 130.833 86.6218C130.521 86.7887 130.098 86.8722 129.565 86.8722C128.905 86.8722 128.312 86.7159 127.786 86.4034C127.264 86.0909 126.85 85.6364 126.545 85.0398C126.243 84.4432 126.092 83.7187 126.092 82.8665C126.092 82.0284 126.24 81.2987 126.534 80.6772C126.829 80.0522 127.239 79.5692 127.765 79.2283C128.29 78.8839 128.898 78.7116 129.587 78.7116C130.119 78.7116 130.542 78.8004 130.854 78.978C131.17 79.152 131.412 79.3509 131.579 79.5746C131.749 79.7947 131.881 79.9759 131.973 80.1179H132.101V78.8182H133.315V87.2344C133.315 87.9375 133.155 88.5092 132.836 88.9496C132.52 89.3935 132.094 89.7184 131.557 89.9244C131.025 90.1339 130.432 90.2386 129.778 90.2386ZM129.736 85.7429C130.24 85.7429 130.666 85.6275 131.014 85.3967C131.362 85.1658 131.627 84.8338 131.808 84.4006C131.989 83.9673 132.079 83.4489 132.079 82.8452C132.079 82.2557 131.991 81.7354 131.813 81.2844C131.636 80.8335 131.373 80.4801 131.025 80.2244C130.677 79.9687 130.247 79.8409 129.736 79.8409C129.203 79.8409 128.759 79.9759 128.404 80.2457C128.052 80.5156 127.788 80.8778 127.61 81.3324C127.436 81.7869 127.349 82.2912 127.349 82.8452C127.349 83.4134 127.438 83.9158 127.616 84.3526C127.797 84.7859 128.063 85.1268 128.415 85.3754C128.77 85.6204 129.21 85.7429 129.736 85.7429ZM143.159 87.1705C142.42 87.1705 141.772 86.9947 141.215 86.6431C140.661 86.2915 140.228 85.7997 139.915 85.1676C139.606 84.5355 139.452 83.7969 139.452 82.9517C139.452 82.0994 139.606 81.3555 139.915 80.7198C140.228 80.0842 140.661 79.5906 141.215 79.239C141.772 78.8874 142.42 78.7116 143.159 78.7116C143.898 78.7116 144.544 78.8874 145.098 79.239C145.655 79.5906 146.089 80.0842 146.398 80.7198C146.71 81.3555 146.866 82.0994 146.866 82.9517C146.866 83.7969 146.71 84.5355 146.398 85.1676C146.089 85.7997 145.655 86.2915 145.098 86.6431C144.544 86.9947 143.898 87.1705 143.159 87.1705ZM143.159 86.0412C143.72 86.0412 144.182 85.8974 144.544 85.6097C144.906 85.3221 145.174 84.9439 145.348 84.4751C145.522 84.0064 145.609 83.4986 145.609 82.9517C145.609 82.4048 145.522 81.8952 145.348 81.4229C145.174 80.9506 144.906 80.5689 144.544 80.2777C144.182 79.9865 143.72 79.8409 143.159 79.8409C142.598 79.8409 142.136 79.9865 141.774 80.2777C141.412 80.5689 141.144 80.9506 140.97 81.4229C140.796 81.8952 140.709 82.4048 140.709 82.9517C140.709 83.4986 140.796 84.0064 140.97 84.4751C141.144 84.9439 141.412 85.3221 141.774 85.6097C142.136 85.8974 142.598 86.0412 143.159 86.0412ZM148.785 87V78.8182H150V80.054H150.085C150.234 79.6491 150.504 79.3207 150.895 79.0685C151.285 78.8164 151.726 78.6903 152.216 78.6903C152.308 78.6903 152.423 78.6921 152.562 78.6957C152.7 78.6992 152.805 78.7045 152.876 78.7116V79.9901C152.834 79.9794 152.736 79.9634 152.583 79.9421C152.434 79.9173 152.276 79.9048 152.109 79.9048C151.711 79.9048 151.356 79.9883 151.044 80.1552C150.735 80.3185 150.49 80.5458 150.309 80.837C150.131 81.1246 150.042 81.4531 150.042 81.8224V87H148.785ZM164.381 80.6506L163.251 80.9702C163.18 80.782 163.076 80.5991 162.937 80.4215C162.802 80.2404 162.617 80.0913 162.383 79.9741C162.149 79.8569 161.849 79.7983 161.483 79.7983C160.982 79.7983 160.565 79.9137 160.231 80.1445C159.901 80.3718 159.736 80.6612 159.736 81.0128C159.736 81.3253 159.849 81.5721 160.077 81.7532C160.304 81.9343 160.659 82.0852 161.142 82.206L162.356 82.5043C163.088 82.6818 163.633 82.9535 163.992 83.3192C164.35 83.6815 164.53 84.1484 164.53 84.7202C164.53 85.1889 164.395 85.608 164.125 85.9773C163.859 86.3466 163.486 86.6378 163.006 86.8509C162.527 87.0639 161.969 87.1705 161.334 87.1705C160.499 87.1705 159.809 86.9893 159.262 86.6271C158.715 86.2649 158.369 85.7358 158.223 85.0398L159.416 84.7415C159.53 85.1818 159.745 85.5121 160.061 85.7322C160.38 85.9524 160.797 86.0625 161.312 86.0625C161.898 86.0625 162.364 85.9382 162.708 85.6896C163.056 85.4375 163.23 85.1357 163.23 84.7841C163.23 84.5 163.131 84.2621 162.932 84.0703C162.733 83.875 162.427 83.7294 162.016 83.6335L160.652 83.3139C159.903 83.1364 159.352 82.8612 159.001 82.4883C158.653 82.1119 158.479 81.6413 158.479 81.0767C158.479 80.6151 158.608 80.2067 158.867 79.8516C159.13 79.4964 159.487 79.2177 159.938 79.0153C160.393 78.8129 160.908 78.7116 161.483 78.7116C162.293 78.7116 162.928 78.8892 163.39 79.2443C163.855 79.5994 164.185 80.0682 164.381 80.6506ZM168.83 87.1918C168.311 87.1918 167.841 87.0941 167.418 86.8988C166.996 86.6999 166.66 86.4141 166.411 86.0412C166.163 85.6648 166.039 85.2102 166.039 84.6776C166.039 84.2088 166.131 83.8288 166.316 83.5376C166.5 83.2429 166.747 83.0121 167.056 82.8452C167.365 82.6783 167.706 82.554 168.079 82.4723C168.455 82.3871 168.833 82.3196 169.213 82.2699C169.71 82.206 170.113 82.158 170.422 82.1261C170.735 82.0906 170.962 82.032 171.104 81.9503C171.25 81.8686 171.323 81.7266 171.323 81.5241V81.4815C171.323 80.956 171.179 80.5476 170.891 80.2564C170.607 79.9652 170.176 79.8196 169.597 79.8196C168.997 79.8196 168.526 79.951 168.185 80.2138C167.844 80.4766 167.605 80.7571 167.466 81.0554L166.273 80.6293C166.486 80.1321 166.77 79.745 167.125 79.468C167.484 79.1875 167.874 78.9922 168.297 78.8821C168.723 78.7685 169.142 78.7116 169.554 78.7116C169.817 78.7116 170.119 78.7436 170.46 78.8075C170.804 78.8679 171.136 78.994 171.456 79.1857C171.779 79.3775 172.047 79.6669 172.26 80.054C172.473 80.4411 172.58 80.9595 172.58 81.6094V87H171.323V85.892H171.259C171.173 86.0696 171.031 86.2596 170.833 86.462C170.634 86.6644 170.369 86.8366 170.039 86.9787C169.709 87.1207 169.306 87.1918 168.83 87.1918ZM169.021 86.0625C169.519 86.0625 169.938 85.9648 170.279 85.7695C170.623 85.5742 170.882 85.3221 171.056 85.0131C171.234 84.7042 171.323 84.3793 171.323 84.0384V82.8878C171.269 82.9517 171.152 83.0103 170.971 83.0636C170.794 83.1133 170.588 83.1577 170.353 83.1967C170.122 83.2322 169.897 83.2642 169.677 83.2926C169.46 83.3175 169.284 83.3388 169.149 83.3565C168.823 83.3991 168.517 83.4684 168.233 83.5643C167.953 83.6566 167.725 83.7969 167.551 83.9851C167.381 84.1697 167.296 84.4219 167.296 84.7415C167.296 85.1783 167.457 85.5085 167.78 85.7322C168.107 85.9524 168.521 86.0625 169.021 86.0625ZM181.272 78.8182L178.246 87H176.968L173.942 78.8182H175.306L177.564 85.3381H177.649L179.908 78.8182H181.272ZM182.931 87V78.8182H184.188V87H182.931ZM183.57 77.4545C183.325 77.4545 183.114 77.3711 182.936 77.2042C182.762 77.0373 182.675 76.8366 182.675 76.6023C182.675 76.3679 182.762 76.1673 182.936 76.0004C183.114 75.8335 183.325 75.75 183.57 75.75C183.815 75.75 184.025 75.8335 184.199 76.0004C184.376 76.1673 184.465 76.3679 184.465 76.6023C184.465 76.8366 184.376 77.0373 184.199 77.2042C184.025 77.3711 183.815 77.4545 183.57 77.4545ZM187.748 82.0781V87H186.49V78.8182H187.705V80.0966H187.811C188.003 79.6811 188.294 79.3473 188.685 79.0952C189.076 78.8395 189.58 78.7116 190.198 78.7116C190.752 78.7116 191.237 78.8253 191.652 79.0526C192.067 79.2763 192.391 79.6172 192.621 80.0753C192.852 80.5298 192.968 81.1051 192.968 81.8011V87H191.711V81.8864C191.711 81.2436 191.544 80.7429 191.21 80.3842C190.876 80.022 190.418 79.8409 189.836 79.8409C189.434 79.8409 189.076 79.9279 188.76 80.1019C188.447 80.2759 188.2 80.5298 188.019 80.8636C187.838 81.1974 187.748 81.6023 187.748 82.0781ZM198.567 90.2386C197.96 90.2386 197.438 90.1605 197.001 90.0043C196.565 89.8516 196.201 89.6491 195.909 89.397C195.622 89.1484 195.393 88.8821 195.222 88.598L196.224 87.8949C196.337 88.044 196.481 88.2145 196.655 88.4062C196.829 88.6016 197.067 88.7702 197.369 88.9123C197.674 89.0579 198.074 89.1307 198.567 89.1307C199.228 89.1307 199.773 88.9709 200.203 88.6513C200.632 88.3317 200.847 87.831 200.847 87.1491V85.4872H200.741C200.648 85.6364 200.517 85.821 200.347 86.0412C200.18 86.2578 199.938 86.4513 199.622 86.6218C199.31 86.7887 198.887 86.8722 198.354 86.8722C197.694 86.8722 197.101 86.7159 196.575 86.4034C196.053 86.0909 195.639 85.6364 195.334 85.0398C195.032 84.4432 194.881 83.7187 194.881 82.8665C194.881 82.0284 195.029 81.2987 195.323 80.6772C195.618 80.0522 196.028 79.5692 196.554 79.2283C197.079 78.8839 197.687 78.7116 198.376 78.7116C198.908 78.7116 199.331 78.8004 199.643 78.978C199.959 79.152 200.201 79.3509 200.368 79.5746C200.538 79.7947 200.67 79.9759 200.762 80.1179H200.89V78.8182H202.104V87.2344C202.104 87.9375 201.945 88.5092 201.625 88.9496C201.309 89.3935 200.883 89.7184 200.347 89.9244C199.814 90.1339 199.221 90.2386 198.567 90.2386ZM198.525 85.7429C199.029 85.7429 199.455 85.6275 199.803 85.3967C200.151 85.1658 200.416 84.8338 200.597 84.4006C200.778 83.9673 200.869 83.4489 200.869 82.8452C200.869 82.2557 200.78 81.7354 200.602 81.2844C200.425 80.8335 200.162 80.4801 199.814 80.2244C199.466 79.9687 199.036 79.8409 198.525 79.8409C197.992 79.8409 197.548 79.9759 197.193 80.2457C196.842 80.5156 196.577 80.8778 196.399 81.3324C196.225 81.7869 196.138 82.2912 196.138 82.8452C196.138 83.4134 196.227 83.9158 196.405 84.3526C196.586 84.7859 196.852 85.1268 197.204 85.3754C197.559 85.6204 197.999 85.7429 198.525 85.7429ZM210.201 80.6506L209.072 80.9702C209.001 80.782 208.896 80.5991 208.757 80.4215C208.622 80.2404 208.438 80.0913 208.203 79.9741C207.969 79.8569 207.669 79.7983 207.303 79.7983C206.802 79.7983 206.385 79.9137 206.051 80.1445C205.721 80.3718 205.556 80.6612 205.556 81.0128C205.556 81.3253 205.67 81.5721 205.897 81.7532C206.124 81.9343 206.479 82.0852 206.962 82.206L208.177 82.5043C208.908 82.6818 209.453 82.9535 209.812 83.3192C210.171 83.6815 210.35 84.1484 210.35 84.7202C210.35 85.1889 210.215 85.608 209.945 85.9773C209.679 86.3466 209.306 86.6378 208.827 86.8509C208.347 87.0639 207.79 87.1705 207.154 87.1705C206.32 87.1705 205.629 86.9893 205.082 86.6271C204.535 86.2649 204.189 85.7358 204.043 85.0398L205.236 84.7415C205.35 85.1818 205.565 85.5121 205.881 85.7322C206.201 85.9524 206.618 86.0625 207.133 86.0625C207.719 86.0625 208.184 85.9382 208.528 85.6896C208.876 85.4375 209.05 85.1357 209.05 84.7841C209.05 84.5 208.951 84.2621 208.752 84.0703C208.553 83.875 208.248 83.7294 207.836 83.6335L206.472 83.3139C205.723 83.1364 205.172 82.8612 204.821 82.4883C204.473 82.1119 204.299 81.6413 204.299 81.0767C204.299 80.6151 204.429 80.2067 204.688 79.8516C204.951 79.4964 205.307 79.2177 205.758 79.0153C206.213 78.8129 206.728 78.7116 207.303 78.7116C208.113 78.7116 208.748 78.8892 209.21 79.2443C209.675 79.5994 210.006 80.0682 210.201 80.6506ZM218.869 87.1918C218.35 87.1918 217.88 87.0941 217.457 86.8988C217.035 86.6999 216.699 86.4141 216.45 86.0412C216.202 85.6648 216.078 85.2102 216.078 84.6776C216.078 84.2088 216.17 83.8288 216.355 83.5376C216.539 83.2429 216.786 83.0121 217.095 82.8452C217.404 82.6783 217.745 82.554 218.118 82.4723C218.494 82.3871 218.872 82.3196 219.252 82.2699C219.749 82.206 220.153 82.158 220.461 82.1261C220.774 82.0906 221.001 82.032 221.143 81.9503C221.289 81.8686 221.362 81.7266 221.362 81.5241V81.4815C221.362 80.956 221.218 80.5476 220.93 80.2564C220.646 79.9652 220.215 79.8196 219.636 79.8196C219.036 79.8196 218.565 79.951 218.224 80.2138C217.883 80.4766 217.644 80.7571 217.505 81.0554L216.312 80.6293C216.525 80.1321 216.809 79.745 217.164 79.468C217.523 79.1875 217.914 78.9922 218.336 78.8821C218.762 78.7685 219.181 78.7116 219.593 78.7116C219.856 78.7116 220.158 78.7436 220.499 78.8075C220.843 78.8679 221.175 78.994 221.495 79.1857C221.818 79.3775 222.086 79.6669 222.299 80.054C222.512 80.4411 222.619 80.9595 222.619 81.6094V87H221.362V85.892H221.298C221.213 86.0696 221.07 86.2596 220.872 86.462C220.673 86.6644 220.408 86.8366 220.078 86.9787C219.748 87.1207 219.345 87.1918 218.869 87.1918ZM219.061 86.0625C219.558 86.0625 219.977 85.9648 220.318 85.7695C220.662 85.5742 220.921 85.3221 221.095 85.0131C221.273 84.7042 221.362 84.3793 221.362 84.0384V82.8878C221.308 82.9517 221.191 83.0103 221.01 83.0636C220.833 83.1133 220.627 83.1577 220.392 83.1967C220.161 83.2322 219.936 83.2642 219.716 83.2926C219.499 83.3175 219.323 83.3388 219.188 83.3565C218.862 83.3991 218.556 83.4684 218.272 83.5643C217.992 83.6566 217.764 83.7969 217.59 83.9851C217.42 84.1697 217.335 84.4219 217.335 84.7415C217.335 85.1783 217.496 85.5085 217.819 85.7322C218.146 85.9524 218.56 86.0625 219.061 86.0625ZM228.237 87.1705C227.47 87.1705 226.81 86.9893 226.256 86.6271C225.702 86.2649 225.275 85.766 224.977 85.1303C224.679 84.4947 224.53 83.7685 224.53 82.9517C224.53 82.1207 224.682 81.3874 224.988 80.7518C225.297 80.1126 225.726 79.6136 226.277 79.255C226.831 78.8928 227.477 78.7116 228.216 78.7116C228.791 78.7116 229.31 78.8182 229.771 79.0312C230.233 79.2443 230.611 79.5426 230.906 79.9261C231.201 80.3097 231.383 80.7571 231.454 81.2685H230.197C230.101 80.8956 229.888 80.5653 229.558 80.2777C229.231 79.9865 228.791 79.8409 228.237 79.8409C227.747 79.8409 227.317 79.9687 226.948 80.2244C226.582 80.4766 226.296 80.8335 226.09 81.2951C225.888 81.7532 225.787 82.2912 225.787 82.9091C225.787 83.5412 225.886 84.0916 226.085 84.5604C226.288 85.0291 226.572 85.3931 226.937 85.6523C227.307 85.9116 227.74 86.0412 228.237 86.0412C228.564 86.0412 228.86 85.9844 229.127 85.8707C229.393 85.7571 229.619 85.5938 229.803 85.3807C229.988 85.1676 230.119 84.9119 230.197 84.6136H231.454C231.383 85.0966 231.208 85.5316 230.927 85.9187C230.65 86.3022 230.283 86.6076 229.824 86.8349C229.37 87.0586 228.841 87.1705 228.237 87.1705ZM236.616 87.1705C235.849 87.1705 235.188 86.9893 234.634 86.6271C234.081 86.2649 233.654 85.766 233.356 85.1303C233.058 84.4947 232.909 83.7685 232.909 82.9517C232.909 82.1207 233.061 81.3874 233.367 80.7518C233.676 80.1126 234.105 79.6136 234.656 79.255C235.21 78.8928 235.856 78.7116 236.595 78.7116C237.17 78.7116 237.688 78.8182 238.15 79.0312C238.612 79.2443 238.99 79.5426 239.285 79.9261C239.579 80.3097 239.762 80.7571 239.833 81.2685H238.576C238.48 80.8956 238.267 80.5653 237.937 80.2777C237.61 79.9865 237.17 79.8409 236.616 79.8409C236.126 79.8409 235.696 79.9687 235.327 80.2244C234.961 80.4766 234.675 80.8335 234.469 81.2951C234.267 81.7532 234.166 82.2912 234.166 82.9091C234.166 83.5412 234.265 84.0916 234.464 84.5604C234.666 85.0291 234.951 85.3931 235.316 85.6523C235.686 85.9116 236.119 86.0412 236.616 86.0412C236.943 86.0412 237.239 85.9844 237.506 85.8707C237.772 85.7571 237.997 85.5938 238.182 85.3807C238.367 85.1676 238.498 84.9119 238.576 84.6136H239.833C239.762 85.0966 239.587 85.5316 239.306 85.9187C239.029 86.3022 238.661 86.6076 238.203 86.8349C237.749 87.0586 237.22 87.1705 236.616 87.1705ZM244.995 87.1705C244.256 87.1705 243.608 86.9947 243.051 86.6431C242.497 86.2915 242.063 85.7997 241.751 85.1676C241.442 84.5355 241.288 83.7969 241.288 82.9517C241.288 82.0994 241.442 81.3555 241.751 80.7198C242.063 80.0842 242.497 79.5906 243.051 79.239C243.608 78.8874 244.256 78.7116 244.995 78.7116C245.734 78.7116 246.38 78.8874 246.934 79.239C247.491 79.5906 247.925 80.0842 248.234 80.7198C248.546 81.3555 248.702 82.0994 248.702 82.9517C248.702 83.7969 248.546 84.5355 248.234 85.1676C247.925 85.7997 247.491 86.2915 246.934 86.6431C246.38 86.9947 245.734 87.1705 244.995 87.1705ZM244.995 86.0412C245.556 86.0412 246.018 85.8974 246.38 85.6097C246.742 85.3221 247.01 84.9439 247.184 84.4751C247.358 84.0064 247.445 83.4986 247.445 82.9517C247.445 82.4048 247.358 81.8952 247.184 81.4229C247.01 80.9506 246.742 80.5689 246.38 80.2777C246.018 79.9865 245.556 79.8409 244.995 79.8409C244.434 79.8409 243.972 79.9865 243.61 80.2777C243.248 80.5689 242.98 80.9506 242.806 81.4229C242.632 81.8952 242.545 82.4048 242.545 82.9517C242.545 83.4986 242.632 84.0064 242.806 84.4751C242.98 84.9439 243.248 85.3221 243.61 85.6097C243.972 85.8974 244.434 86.0412 244.995 86.0412ZM255.778 83.6548V78.8182H257.035V87H255.778V85.6151H255.692C255.501 86.0305 255.202 86.3839 254.797 86.6751C254.393 86.9627 253.881 87.1065 253.263 87.1065C252.752 87.1065 252.297 86.9947 251.9 86.771C251.502 86.5437 251.189 86.2028 250.962 85.7482C250.735 85.2901 250.621 84.7131 250.621 84.017V78.8182H251.878V83.9318C251.878 84.5284 252.045 85.0043 252.379 85.3594C252.716 85.7145 253.146 85.892 253.668 85.892C253.981 85.892 254.298 85.8121 254.622 85.6523C254.948 85.4925 255.222 85.2475 255.442 84.9173C255.666 84.587 255.778 84.1662 255.778 83.6548ZM260.594 82.0781V87H259.337V78.8182H260.552V80.0966H260.658C260.85 79.6811 261.141 79.3473 261.532 79.0952C261.922 78.8395 262.427 78.7116 263.044 78.7116C263.598 78.7116 264.083 78.8253 264.499 79.0526C264.914 79.2763 265.237 79.6172 265.468 80.0753C265.699 80.5298 265.814 81.1051 265.814 81.8011V87H264.557V81.8864C264.557 81.2436 264.39 80.7429 264.057 80.3842C263.723 80.022 263.265 79.8409 262.682 79.8409C262.281 79.8409 261.922 79.9279 261.606 80.1019C261.294 80.2759 261.047 80.5298 260.866 80.8636C260.685 81.1974 260.594 81.6023 260.594 82.0781ZM271.67 78.8182V79.8835H267.43V78.8182H271.67ZM268.665 76.858H269.923V84.6562C269.923 85.0114 269.974 85.2777 270.077 85.4553C270.184 85.6293 270.319 85.7464 270.482 85.8068C270.649 85.8636 270.825 85.892 271.009 85.892C271.148 85.892 271.261 85.8849 271.35 85.8707C271.439 85.853 271.51 85.8388 271.563 85.8281L271.819 86.9574C271.734 86.9893 271.615 87.0213 271.462 87.0533C271.309 87.0888 271.116 87.1065 270.881 87.1065C270.526 87.1065 270.178 87.0302 269.837 86.8775C269.5 86.7248 269.219 86.4922 268.996 86.1797C268.776 85.8672 268.665 85.473 268.665 84.9972V76.858Z" fill="white"/>
<path d="M39.9473 108H312.052" stroke="white" stroke-opacity="0.24"/>
<g clip-path="url(#clip2_4034_3804)">
<path d="M48.8848 134.875L47.6348 133.646C47.482 133.493 47.3084 133.417 47.1139 133.417C46.9195 133.417 46.7459 133.493 46.5931 133.646C46.4403 133.799 46.3639 133.979 46.3639 134.187C46.3639 134.382 46.4403 134.556 46.5931 134.708L48.3639 136.479C48.5167 136.632 48.6903 136.708 48.8848 136.708C49.0792 136.708 49.2528 136.632 49.4056 136.479L53.3014 132.583C53.4542 132.431 53.5306 132.257 53.5306 132.062C53.5306 131.854 53.4542 131.674 53.3014 131.521C53.1487 131.368 52.975 131.292 52.7806 131.292C52.5862 131.292 52.4125 131.368 52.2598 131.521L48.8848 134.875ZM44.4473 141C44.0306 141 43.6764 140.854 43.3848 140.562C43.0931 140.271 42.9473 139.917 42.9473 139.5V128.5C42.9473 128.083 43.0931 127.729 43.3848 127.437C43.6764 127.146 44.0306 127 44.4473 127H55.4473C55.8639 127 56.2181 127.146 56.5098 127.437C56.8014 127.729 56.9473 128.083 56.9473 128.5V139.5C56.9473 139.917 56.8014 140.271 56.5098 140.562C56.2181 140.854 55.8639 141 55.4473 141H44.4473Z" fill="white"/>
</g>
<path d="M69.2683 139V128.091H72.9544C73.8102 128.091 74.5098 128.245 75.0531 128.554C75.6 128.86 76.0048 129.273 76.2676 129.795C76.5304 130.317 76.6618 130.9 76.6618 131.543C76.6618 132.185 76.5304 132.77 76.2676 133.295C76.0083 133.821 75.6071 134.24 75.0637 134.552C74.5204 134.861 73.8244 135.016 72.9757 135.016H70.3336V133.844H72.9331C73.519 133.844 73.9895 133.743 74.3446 133.54C74.6998 133.338 74.9572 133.064 75.117 132.72C75.2804 132.372 75.362 131.979 75.362 131.543C75.362 131.106 75.2804 130.715 75.117 130.371C74.9572 130.026 74.698 129.756 74.3393 129.561C73.9806 129.362 73.5048 129.263 72.9118 129.263H70.5893V139H69.2683ZM78.6193 139V130.818H79.8338V132.054H79.919C80.0682 131.649 80.3381 131.321 80.7287 131.069C81.1193 130.816 81.5597 130.69 82.0497 130.69C82.142 130.69 82.2575 130.692 82.396 130.696C82.5344 130.699 82.6392 130.705 82.7102 130.712V131.99C82.6676 131.979 82.57 131.963 82.4173 131.942C82.2681 131.917 82.1101 131.905 81.9432 131.905C81.5455 131.905 81.1903 131.988 80.8778 132.155C80.5689 132.319 80.3239 132.546 80.1428 132.837C79.9652 133.125 79.8764 133.453 79.8764 133.822V139H78.6193ZM87.2752 139.17C86.5366 139.17 85.8885 138.995 85.331 138.643C84.777 138.292 84.3438 137.8 84.0312 137.168C83.7223 136.536 83.5678 135.797 83.5678 134.952C83.5678 134.099 83.7223 133.355 84.0312 132.72C84.3438 132.084 84.777 131.591 85.331 131.239C85.8885 130.887 86.5366 130.712 87.2752 130.712C88.0138 130.712 88.6602 130.887 89.2141 131.239C89.7717 131.591 90.2049 132.084 90.5138 132.72C90.8263 133.355 90.9826 134.099 90.9826 134.952C90.9826 135.797 90.8263 136.536 90.5138 137.168C90.2049 137.8 89.7717 138.292 89.2141 138.643C88.6602 138.995 88.0138 139.17 87.2752 139.17ZM87.2752 138.041C87.8363 138.041 88.2979 137.897 88.6602 137.61C89.0224 137.322 89.2905 136.944 89.4645 136.475C89.6385 136.006 89.7255 135.499 89.7255 134.952C89.7255 134.405 89.6385 133.895 89.4645 133.423C89.2905 132.951 89.0224 132.569 88.6602 132.278C88.2979 131.987 87.8363 131.841 87.2752 131.841C86.7141 131.841 86.2525 131.987 85.8903 132.278C85.5281 132.569 85.2599 132.951 85.0859 133.423C84.9119 133.895 84.8249 134.405 84.8249 134.952C84.8249 135.499 84.9119 136.006 85.0859 136.475C85.2599 136.944 85.5281 137.322 85.8903 137.61C86.2525 137.897 86.7141 138.041 87.2752 138.041ZM96.545 130.818V131.884H92.1345V130.818H96.545ZM93.4555 139V129.689C93.4555 129.22 93.5656 128.83 93.7858 128.517C94.0059 128.205 94.2918 127.97 94.6434 127.814C94.9949 127.658 95.366 127.58 95.7567 127.58C96.0656 127.58 96.3177 127.604 96.5131 127.654C96.7084 127.704 96.854 127.75 96.9498 127.793L96.5876 128.879C96.5237 128.858 96.4349 128.831 96.3213 128.799C96.2112 128.767 96.0656 128.751 95.8845 128.751C95.469 128.751 95.1689 128.856 94.9843 129.066C94.8032 129.275 94.7126 129.582 94.7126 129.987V139H93.4555ZM98.3068 139V130.818H99.5639V139H98.3068ZM98.946 129.455C98.701 129.455 98.4897 129.371 98.3121 129.204C98.1381 129.037 98.0511 128.837 98.0511 128.602C98.0511 128.368 98.1381 128.167 98.3121 128C98.4897 127.833 98.701 127.75 98.946 127.75C99.1911 127.75 99.4006 127.833 99.5746 128C99.7521 128.167 99.8409 128.368 99.8409 128.602C99.8409 128.837 99.7521 129.037 99.5746 129.204C99.4006 129.371 99.1911 129.455 98.946 129.455ZM103.123 128.091V139H101.866V128.091H103.123ZM108.856 139.17C108.068 139.17 107.388 138.996 106.816 138.648C106.248 138.297 105.809 137.807 105.501 137.178C105.195 136.546 105.042 135.811 105.042 134.973C105.042 134.135 105.195 133.396 105.501 132.757C105.809 132.114 106.239 131.614 106.79 131.255C107.344 130.893 107.99 130.712 108.729 130.712C109.155 130.712 109.575 130.783 109.991 130.925C110.406 131.067 110.785 131.298 111.126 131.617C111.466 131.933 111.738 132.352 111.941 132.874C112.143 133.396 112.244 134.039 112.244 134.803V135.335H105.937V134.249H110.966C110.966 133.787 110.873 133.375 110.689 133.013C110.508 132.651 110.248 132.365 109.911 132.155C109.577 131.946 109.183 131.841 108.729 131.841C108.228 131.841 107.795 131.965 107.429 132.214C107.067 132.459 106.788 132.778 106.593 133.173C106.397 133.567 106.3 133.989 106.3 134.44V135.165C106.3 135.783 106.406 136.306 106.619 136.736C106.836 137.162 107.136 137.487 107.519 137.711C107.903 137.931 108.349 138.041 108.856 138.041C109.187 138.041 109.485 137.995 109.751 137.903C110.021 137.807 110.254 137.665 110.449 137.477C110.644 137.285 110.795 137.047 110.902 136.763L112.116 137.104C111.988 137.516 111.774 137.878 111.472 138.19C111.17 138.499 110.797 138.741 110.353 138.915C109.909 139.085 109.41 139.17 108.856 139.17ZM118.375 139V130.818H119.632V139H118.375ZM119.014 129.455C118.769 129.455 118.558 129.371 118.381 129.204C118.206 129.037 118.119 128.837 118.119 128.602C118.119 128.368 118.206 128.167 118.381 128C118.558 127.833 118.769 127.75 119.014 127.75C119.259 127.75 119.469 127.833 119.643 128C119.82 128.167 119.909 128.368 119.909 128.602C119.909 128.837 119.82 129.037 119.643 129.204C119.469 129.371 119.259 129.455 119.014 129.455ZM123.192 134.078V139H121.935V130.818H123.149V132.097H123.256C123.448 131.681 123.739 131.347 124.129 131.095C124.52 130.839 125.024 130.712 125.642 130.712C126.196 130.712 126.681 130.825 127.096 131.053C127.512 131.276 127.835 131.617 128.066 132.075C128.297 132.53 128.412 133.105 128.412 133.801V139H127.155V133.886C127.155 133.244 126.988 132.743 126.654 132.384C126.32 132.022 125.862 131.841 125.28 131.841C124.879 131.841 124.52 131.928 124.204 132.102C123.891 132.276 123.645 132.53 123.464 132.864C123.282 133.197 123.192 133.602 123.192 134.078ZM134.353 130.818V131.884H129.942V130.818H134.353ZM131.263 139V129.689C131.263 129.22 131.373 128.83 131.593 128.517C131.814 128.205 132.099 127.97 132.451 127.814C132.803 127.658 133.174 127.58 133.564 127.58C133.873 127.58 134.125 127.604 134.321 127.654C134.516 127.704 134.662 127.75 134.757 127.793L134.395 128.879C134.331 128.858 134.243 128.831 134.129 128.799C134.019 128.767 133.873 128.751 133.692 128.751C133.277 128.751 132.977 128.856 132.792 129.066C132.611 129.275 132.52 129.582 132.52 129.987V139H131.263ZM139.101 139.17C138.363 139.17 137.715 138.995 137.157 138.643C136.603 138.292 136.17 137.8 135.857 137.168C135.548 136.536 135.394 135.797 135.394 134.952C135.394 134.099 135.548 133.355 135.857 132.72C136.17 132.084 136.603 131.591 137.157 131.239C137.715 130.887 138.363 130.712 139.101 130.712C139.84 130.712 140.486 130.887 141.04 131.239C141.598 131.591 142.031 132.084 142.34 132.72C142.653 133.355 142.809 134.099 142.809 134.952C142.809 135.797 142.653 136.536 142.34 137.168C142.031 137.8 141.598 138.292 141.04 138.643C140.486 138.995 139.84 139.17 139.101 139.17ZM139.101 138.041C139.662 138.041 140.124 137.897 140.486 137.61C140.849 137.322 141.117 136.944 141.291 136.475C141.465 136.006 141.552 135.499 141.552 134.952C141.552 134.405 141.465 133.895 141.291 133.423C141.117 132.951 140.849 132.569 140.486 132.278C140.124 131.987 139.662 131.841 139.101 131.841C138.54 131.841 138.079 131.987 137.716 132.278C137.354 132.569 137.086 132.951 136.912 133.423C136.738 133.895 136.651 134.405 136.651 134.952C136.651 135.499 136.738 136.006 136.912 136.475C137.086 136.944 137.354 137.322 137.716 137.61C138.079 137.897 138.54 138.041 139.101 138.041ZM144.728 139V130.818H145.942V132.054H146.027C146.177 131.649 146.446 131.321 146.837 131.069C147.228 130.816 147.668 130.69 148.158 130.69C148.25 130.69 148.366 130.692 148.504 130.696C148.643 130.699 148.748 130.705 148.819 130.712V131.99C148.776 131.979 148.678 131.963 148.526 131.942C148.377 131.917 148.218 131.905 148.052 131.905C147.654 131.905 147.299 131.988 146.986 132.155C146.677 132.319 146.432 132.546 146.251 132.837C146.074 133.125 145.985 133.453 145.985 133.822V139H144.728ZM150.309 139V130.818H151.523V132.097H151.63C151.8 131.66 152.075 131.321 152.455 131.079C152.835 130.834 153.292 130.712 153.824 130.712C154.364 130.712 154.813 130.834 155.172 131.079C155.534 131.321 155.817 131.66 156.019 132.097H156.104C156.314 131.674 156.628 131.338 157.047 131.09C157.466 130.838 157.969 130.712 158.555 130.712C159.286 130.712 159.884 130.941 160.35 131.399C160.815 131.853 161.047 132.562 161.047 133.524V139H159.79V133.524C159.79 132.92 159.625 132.489 159.295 132.23C158.965 131.971 158.576 131.841 158.128 131.841C157.553 131.841 157.107 132.015 156.791 132.363C156.475 132.707 156.317 133.144 156.317 133.673V139H155.039V133.396C155.039 132.931 154.888 132.556 154.586 132.272C154.284 131.985 153.895 131.841 153.42 131.841C153.093 131.841 152.787 131.928 152.503 132.102C152.223 132.276 151.996 132.517 151.822 132.826C151.651 133.132 151.566 133.485 151.566 133.886V139H150.309ZM165.754 139.192C165.235 139.192 164.765 139.094 164.342 138.899C163.919 138.7 163.584 138.414 163.335 138.041C163.087 137.665 162.962 137.21 162.962 136.678C162.962 136.209 163.055 135.829 163.239 135.538C163.424 135.243 163.671 135.012 163.98 134.845C164.289 134.678 164.63 134.554 165.002 134.472C165.379 134.387 165.757 134.32 166.137 134.27C166.634 134.206 167.037 134.158 167.346 134.126C167.659 134.091 167.886 134.032 168.028 133.95C168.174 133.869 168.246 133.727 168.246 133.524V133.482C168.246 132.956 168.103 132.548 167.815 132.256C167.531 131.965 167.099 131.82 166.521 131.82C165.92 131.82 165.45 131.951 165.109 132.214C164.768 132.477 164.528 132.757 164.39 133.055L163.197 132.629C163.41 132.132 163.694 131.745 164.049 131.468C164.408 131.187 164.798 130.992 165.221 130.882C165.647 130.768 166.066 130.712 166.478 130.712C166.741 130.712 167.043 130.744 167.384 130.808C167.728 130.868 168.06 130.994 168.38 131.186C168.703 131.377 168.971 131.667 169.184 132.054C169.397 132.441 169.504 132.96 169.504 133.609V139H168.246V137.892H168.183C168.097 138.07 167.955 138.26 167.756 138.462C167.558 138.664 167.293 138.837 166.963 138.979C166.632 139.121 166.229 139.192 165.754 139.192ZM165.945 138.062C166.442 138.062 166.862 137.965 167.202 137.77C167.547 137.574 167.806 137.322 167.98 137.013C168.158 136.704 168.246 136.379 168.246 136.038V134.888C168.193 134.952 168.076 135.01 167.895 135.064C167.717 135.113 167.511 135.158 167.277 135.197C167.046 135.232 166.821 135.264 166.6 135.293C166.384 135.317 166.208 135.339 166.073 135.357C165.746 135.399 165.441 135.468 165.157 135.564C164.876 135.657 164.649 135.797 164.475 135.985C164.305 136.17 164.219 136.422 164.219 136.741C164.219 137.178 164.381 137.509 164.704 137.732C165.031 137.952 165.445 138.062 165.945 138.062ZM175.356 130.818V131.884H171.116V130.818H175.356ZM172.352 128.858H173.609V136.656C173.609 137.011 173.661 137.278 173.764 137.455C173.87 137.629 174.005 137.746 174.168 137.807C174.335 137.864 174.511 137.892 174.696 137.892C174.834 137.892 174.948 137.885 175.037 137.871C175.125 137.853 175.196 137.839 175.25 137.828L175.505 138.957C175.42 138.989 175.301 139.021 175.149 139.053C174.996 139.089 174.802 139.107 174.568 139.107C174.213 139.107 173.865 139.03 173.524 138.877C173.187 138.725 172.906 138.492 172.682 138.18C172.462 137.867 172.352 137.473 172.352 136.997V128.858ZM177.247 139V130.818H178.504V139H177.247ZM177.886 129.455C177.641 129.455 177.43 129.371 177.253 129.204C177.079 129.037 176.992 128.837 176.992 128.602C176.992 128.368 177.079 128.167 177.253 128C177.43 127.833 177.641 127.75 177.886 127.75C178.131 127.75 178.341 127.833 178.515 128C178.693 128.167 178.781 128.368 178.781 128.602C178.781 128.837 178.693 129.037 178.515 129.204C178.341 129.371 178.131 129.455 177.886 129.455ZM184.131 139.17C183.392 139.17 182.744 138.995 182.186 138.643C181.632 138.292 181.199 137.8 180.887 137.168C180.578 136.536 180.423 135.797 180.423 134.952C180.423 134.099 180.578 133.355 180.887 132.72C181.199 132.084 181.632 131.591 182.186 131.239C182.744 130.887 183.392 130.712 184.131 130.712C184.869 130.712 185.516 130.887 186.07 131.239C186.627 131.591 187.06 132.084 187.369 132.72C187.682 133.355 187.838 134.099 187.838 134.952C187.838 135.797 187.682 136.536 187.369 137.168C187.06 137.8 186.627 138.292 186.07 138.643C185.516 138.995 184.869 139.17 184.131 139.17ZM184.131 138.041C184.692 138.041 185.153 137.897 185.516 137.61C185.878 137.322 186.146 136.944 186.32 136.475C186.494 136.006 186.581 135.499 186.581 134.952C186.581 134.405 186.494 133.895 186.32 133.423C186.146 132.951 185.878 132.569 185.516 132.278C185.153 131.987 184.692 131.841 184.131 131.841C183.57 131.841 183.108 131.987 182.746 132.278C182.384 132.569 182.115 132.951 181.941 133.423C181.767 133.895 181.68 134.405 181.68 134.952C181.68 135.499 181.767 136.006 181.941 136.475C182.115 136.944 182.384 137.322 182.746 137.61C183.108 137.897 183.57 138.041 184.131 138.041ZM191.014 134.078V139H189.757V130.818H190.972V132.097H191.078C191.27 131.681 191.561 131.347 191.952 131.095C192.342 130.839 192.847 130.712 193.464 130.712C194.018 130.712 194.503 130.825 194.919 131.053C195.334 131.276 195.657 131.617 195.888 132.075C196.119 132.53 196.234 133.105 196.234 133.801V139H194.977V133.886C194.977 133.244 194.81 132.743 194.476 132.384C194.143 132.022 193.685 131.841 193.102 131.841C192.701 131.841 192.342 131.928 192.026 132.102C191.714 132.276 191.467 132.53 191.286 132.864C191.105 133.197 191.014 133.602 191.014 134.078Z" fill="white"/>
</g>
<path d="M33.3206 138.318C33.6178 137.544 33.2319 136.676 32.4586 136.379L19.8573 131.536C19.0841 131.239 18.2163 131.625 17.919 132.398C17.6218 133.171 18.0077 134.039 18.781 134.336L29.9821 138.641L25.6769 149.842C25.3796 150.616 25.7656 151.484 26.5388 151.781C27.3121 152.078 28.1799 151.692 28.4771 150.919L33.3206 138.318ZM4.91527 174.875C4.83888 175.7 5.44567 176.43 6.27057 176.507C7.09547 176.583 7.8261 175.976 7.90249 175.151L6.40888 175.013L4.91527 174.875ZM6.40888 175.013L7.90249 175.151C9.11223 162.087 15.2742 153.092 21.1512 147.343C24.093 144.466 26.9591 142.407 29.0844 141.07C30.1462 140.402 31.0205 139.916 31.6235 139.6C31.9248 139.442 32.1581 139.327 32.3128 139.252C32.3901 139.215 32.4477 139.188 32.4844 139.171C32.5027 139.162 32.5157 139.156 32.5234 139.153C32.5272 139.151 32.5297 139.15 32.5308 139.15C32.5313 139.149 32.5315 139.149 32.5314 139.149C32.5313 139.149 32.531 139.149 32.5309 139.15C32.5305 139.15 32.5299 139.15 31.9204 137.779C31.3109 136.409 31.3102 136.409 31.3094 136.409C31.309 136.41 31.3081 136.41 31.3073 136.41C31.3058 136.411 31.3039 136.412 31.3017 136.413C31.2972 136.415 31.2913 136.418 31.2841 136.421C31.2696 136.427 31.2496 136.437 31.2243 136.448C31.1737 136.472 31.1018 136.505 31.01 136.55C30.8264 136.638 30.5628 136.769 30.2301 136.943C29.5648 137.292 28.6219 137.817 27.4873 138.53C25.2199 139.956 22.1769 142.143 19.0533 145.199C12.7997 151.316 6.20583 160.938 4.91527 174.875L6.40888 175.013Z" fill="white"/>
<defs>
<radialGradient id="paint0_radial_4034_3804" cx="0" cy="0" r="1" gradientUnits="userSpaceOnUse" gradientTransform="translate(175.5 98) rotate(90) scale(165 379.5)">
<stop offset="0.423077" stop-color="#48515D"/>
<stop offset="1" stop-opacity="0"/>
</radialGradient>
<clipPath id="clip0_4034_3804">
<rect width="352" height="161" rx="8" fill="white"/>
</clipPath>
<clipPath id="clip1_4034_3804">
<rect width="20" height="20" fill="white" transform="translate(39.9473 72)"/>
</clipPath>
<clipPath id="clip2_4034_3804">
<rect width="20" height="20" fill="white" transform="translate(39.9473 124)"/>
</clipPath>
</defs>
</svg>
